<svg version="1.2" xmlns="http://www.w3.org/2000/svg" viewBox="0 0 800 800" width="800" height="800">
	<title>Nouveau projet</title>
	<defs>
		<linearGradient id="g1" x2="1" gradientUnits="userSpaceOnUse" gradientTransform="matrix(-81.666,-777,777,-81.666,440.333,782)">
			<stop offset="0" stop-color="#000000" stop-opacity=".1"/>
			<stop offset="1" stop-color="#000000" stop-opacity=".1"/>
		</linearGradient>
		<filter x="-50%" y="-50%" width="200%" height="200%" id="f1" ><feDropShadow dx="-0.3487823687206262" dy="4.987820251299121" stdDeviation="5.833333333333334" flood-color="#000000" flood-opacity=".2"/></filter>
	</defs>
	<style>
		.s0 { fill: url(#g1);stroke: #404040;stroke-miterlimit:100 } 
		.s1 { filter: url(#f1);fill: #ff9800 } 
		.s2 { fill: #ff9800 } 
		.s3 { fill: #67e8f9 } 
		.s4 { fill: #00bcd4 } 
	</style>
	<path id="Forme 1" fill-rule="evenodd" class="s0" d="m399.5 782c-214.8 0-388.5-173.7-388.5-388.5 0-214.8 173.7-388.5 388.5-388.5 214.8 0 388.5 173.7 388.5 388.5 0 214.8-173.7 388.5-388.5 388.5z"/>
	<path id="Remplissage couleur unie 2 copy" fill-rule="evenodd" class="s1" d="m253.9 74.2c39.1 0.6 48.1 1.4 69.5 6.5 13.6 3.2 33.8 9.5 44.9 14 11.1 4.5 22.7 9.4 31.4 13.9l-6.7 4c-1.4 0.8-3.6 2.3-6.5 4.1q-2 1.1-3.6 2.1c-8 5-22.2 14.5-31.4 21.4-2.9 2.1-6.6 5.1-10.7 8.6-4.9 3.8-10.2 8.2-16 13.1l-16.4-4c-9-2.1-26.4-4.7-38.8-5.7-12.3-0.9-32-0.9-43.7 0-11.7 0.9-30.6 3.7-42 6.2-11.4 2.5-22.1 5.9-23.6 7.4-1.6 1.5-4.7 12.4-6.9 24.1-2.3 11.7-4.7 32.4-5.3 46-0.8 14.4-0.2 32.5 1.4 43.7 1.4 10.5 4.7 26.6 7.2 35.9 2.5 9.2 7.6 23.8 11.3 32.5 3.8 8.6 12.2 23.7 18.8 33.6 6.5 9.9 18 24 25.5 31.4 6.5 6.4 10.2 10.6 12 14 0.4 9.2 1.2 17.2 2.4 25.2 1.9 13 6.1 32.7 9.3 43.8 1.3 4.5 3.3 10.3 5.6 16.5 1.6 4.9 3.1 9.3 4.3 12.1 0.8 1.8 1.8 3.7 2.8 5.6 1.3 3 2.6 5.8 3.8 8.4q0.5 1.1 1.1 2.2-3-1.3-8.6-4.4c-8.7-4.6-24.2-14.1-34.5-21.1-10.3-6.9-29.4-22.7-42.4-35-12.9-12.4-30-31-37.8-41.5-7.9-10.5-19.3-28.7-25.3-40.4-6-11.7-13.1-26.8-15.7-33.6-2.6-6.8-6.8-20.4-9.4-30.3-2.5-9.8-6-28.5-7.7-41.5-1.7-12.9-3.2-33.8-3.2-46.5 0-12.6 1.4-34.3 3.3-48.2 1.8-13.9 5.8-35.3 8.9-47.6 3.1-12.4 8-27 10.8-32.5 4.4-8.6 7.7-11.4 21.9-18.6 9.2-4.6 26.3-10.9 38-13.9 11.7-3.1 29.4-7.1 39.3-8.9 13.1-2.4 30-3.2 62.7-2.6zm132.6 42.5c8.6-4.9 21.8-11.7 31.7-16.1 11.4-5.2 29.6-11.9 40.3-14.9 10.8-3.1 27.7-7.1 37.6-8.9 13.2-2.5 30.1-3.1 63.9-2.5 39.5 0.6 49.3 1.5 69.5 6.3 13 3.1 31.6 8.5 41.5 12 9.9 3.6 20.9 8.5 24.6 11 3.6 2.4 8.7 7.5 11.2 11.2 2.6 3.7 7.1 15.3 10 25.8 2.9 10.5 7.2 30.1 9.6 43.7 3 17.3 4.3 35.4 4.3 60.5 0.1 22.1-1.2 44.1-3.4 57.2-1.9 11.7-6 30.4-9.2 41.5-3.2 11.1-9.6 28-22.4 54.9l-4.6-8.4c-1.6-2.9-4.6-7.8-7.9-12.9-1.5-2.5-3-4.7-4.3-6.7q-0.9-1.3-2-2.9c-5.2-7.5-15.4-20-35.6-41.9l4.1-14.6c2.2-8 4.9-25.7 6.1-39.3 1.1-13.5 1.3-34.7 0.3-47-0.9-12.4-3.3-30.5-5.3-40.4-1.9-9.9-3.5-18.2-3.5-18.5 0-0.3-7.3-2.7-16.3-5.3-8.9-2.5-27.1-6.1-40.3-7.8-18.2-2.4-30.4-2.6-49.4-1.1-13.9 1.2-30.2 3.2-36.4 4.6-5.3 1.2-15.8 4.1-24.9 7-1.6 0.2-6.8 1.8-12.1 3.7-5.4 1.9-17 7.3-26.2 12.1q-0.4 0.2-0.7 0.4-0.9 0.5-1.8 1c-9 4.8-19.9 11.2-25.1 14.6l-10.1 6.6q0.3 0.3 0.7 0.5c-4.8 3.7-10 7.9-14.2 11.5-11.4 9.7-15.3 11.8-25.8 13.2-2.7 0.3-6.8 1-11.6 1.9q-3 0.3-5.2 0.7c-9.8 1.8-24 4.8-31.4 6.8-7.4 1.9-21.5 6.4-31.4 9.9-2.4 0.9-4.9 1.9-7.4 3-5.9 2.4-10.9 4.7-13.3 6-4 2.4-7.3 3.8-7.3 3.2 0-0.6 2.7-6.4 5.9-12.9 3.3-6.5 11-19.3 17.2-28.6 6.3-9.2 22-27.5 35-40.5 9.1-9.1 20.6-19.6 29.9-27.5 11.6-9.2 20.5-15.7 27.5-20.3 6.3-4.1 13.2-8.6 18.2-11.8zm-162.2 310.3c-0.5-10.6-0.5-22.8-0.1-38.7 0.8-29.7 2.4-46.8 6.1-65 2.8-13.5 7.4-31.7 10.3-40.3 4-11.8 7.4-17.6 13.8-23.1 3.6-3.1 11.2-7.3 19-10.8 4.2-1.7 8.7-3.4 13.1-4.9 10.4-3.7 28.6-8.7 40.3-11.2 7-1.5 15.1-3.1 22-4.3 12-1.5 34.8-2.6 77.8-2.8l11.9 12.8c6.5 7.1 16.5 19.9 22.3 28.6 5.7 8.6 13.2 22.2 16.6 30.2 3.4 8 6.3 15.9 6.3 17.4 0.1 2.1-2.2 2-9.5-0.6-5.2-1.9-17.6-5-27.4-6.8-9.9-1.9-30.1-3.4-44.9-3.4-14.8 0-36 1.6-47.1 3.5-11.1 2-25.4 5.3-43.5 11.2l-4.6 24.7c-2.9 15.7-4.6 34.5-4.7 51.6-0.1 14.8 0.6 32.4 1.4 39.2 0.8 6.8 2.9 18.4 4.7 25.8 1.8 7.4 5.2 18.7 7.6 25.1 0.4 1.7 2.5 6.7 5.4 13 2.1 4.9 4.5 9.9 6.6 14 2.7 5.5 7.9 14 13.4 22.2 2.6 4 5.3 7.8 7.6 10.9 7.4 9.9 16.2 20.5 19.5 23.5l6 5.6q0.2 0 0.3 0c2.1 2.1 4 3.9 5.8 5.5 9.1 8.1 23.2 19.2 31.4 24.7 8.2 5.4 22.5 13.7 31.7 18.3 9.3 4.6 25.4 10.9 35.9 14.1 10.5 3.1 26.6 6.8 35.9 8.1 9.2 1.3 26.4 2.4 38.1 2.4 11.7 0 28.3-1 37-2.3 8.6-1.3 22.7-4 31.4-6 8.6-2 16.4-4.3 17.3-5.1 0.9-0.7 3.7-11.4 6.2-23.8 2.4-12.3 5.1-36 5.8-52.7 1.1-22.8 0.6-35.2-2.1-50.4-2-11.1-5.7-27.3-8.4-35.9-2.6-8.6-7.8-21.7-11.5-29.1-3.8-7.4-10.2-18.8-14.4-25.3q-0.8-1.2-1.9-2.8c-1.5-2.4-2.9-4.3-3.9-5.6l-7.3-8.9-0.2 0.2c-3.3-3.8-6.7-7.6-9.8-10.9-14-14.5-15.6-17.2-15.7-25.2 0-5-1.7-18.6-3.6-30.3-2-11.7-7.4-32.9-12.2-47.1-4.8-14.2-8.5-26-8.2-26.2 0.2-0.2 7.9 4.1 17.2 9.7 9.2 5.5 25.9 17 37 25.4 11.1 8.4 29.7 25.2 41.3 37.4 10.4 10.9 22.9 25.8 29.6 34.9q0.2 0.3 0.4 0.7c1.9 2.7 4 5.8 5.9 8.9 5.1 8.2 10.9 18.4 14.4 25.3 4.5 8.9 10.5 22.5 13.4 30.2 3 7.7 7.4 23.1 10 34.2 2.6 11.1 5.9 30.8 7.4 43.7 1.5 14 2.1 36 1.4 53.9-0.8 18.6-3.5 41-7 58.3-3.1 15.4-7.7 34.5-10.2 42.6-2.5 8-6.6 17.8-9.1 21.8-3 4.8-9.2 9.5-18.5 13.9-7.7 3.6-25.6 9.6-39.8 13.2-14.2 3.7-35.9 7.9-48.2 9.5-14.3 1.7-35.3 2.3-58.3 1.4-23.6-0.8-43.2-2.9-57.2-5.9-11.7-2.6-28.8-7.3-38.1-10.5-9.2-3.2-25.9-10.3-37-15.9-11.1-5.5-27.2-14.7-35.9-20.4-8.6-5.8-22.7-16.4-31.4-23.7-8.6-7.3-19.7-17.4-24.7-22.5-5-5-14.2-15.2-20.5-22.6-6.2-7.4-15.7-20-21-28-5-7.6-13.4-22.7-19.3-34.8 3.7 1.7 4.3 1.4 2-0.8-1.9-1.8-4.6-5.7-6.9-9.8-2.4-5.7-4.9-11.8-7.1-17.7-1.7-5.7-3.5-12.1-4.9-17.7-2.4-10.4-5.9-27.1-7.6-37-1.8-9.8-3.2-20.9-3.2-24.6 0-2.1-0.4-4-1.6-6.2zm91.4 58.3c1.2 3.3 3.2 8 5.4 12.9 1.3 2.8 2.7 5.9 4.2 9 3.7 7.6 9.9 18.1 15.8 27.2 2.8 4.2 5.7 8.3 8.4 11.9 6.3 8.3 16.5 19.8 25 28.1 59.5-2.4 84.3-4.7 93.6-6.6 9.2-1.9 25.4-6.1 35.8-9.3 10.5-3.3 29.2-10.9 41.5-17 12.4-6.1 30.5-16.6 40.4-23.3 9.9-6.7 26-19.1 35.9-27.5 15.4-13.2 17.8-16.2 17.5-21.8-0.3-3.6-5.6-16.7-11.8-29-4.6-9.1-10.4-19.2-14.7-25.8-2.8-4-7-9.2-11.4-14.3l-17.8 17.9c-2.4 2.4-5 5-7.7 7.5q0 0.6 0 1.3l-9.6 8c-1.8 1.6-4.4 3.6-7.4 5.8-2.1 1.8-4 3.3-5.5 4.4-6.8 4.9-18.4 12.6-25.8 17-2.4 1.5-5.6 3.2-9 5-2.5 1.4-4.8 2.5-6.7 3.5-7.4 3.5-16 7.3-24.7 10.6l0.1-0.4c-8.8 3.2-19.1 6.4-25.9 8.1-9.2 2.3-29.4 4.9-44.8 5.6-17.7 0.9-36.3 0.4-50.4-1.4-12.4-1.6-28.7-4.5-36.4-6.5-8.4-2.2-14-2.8-14.1-1.4q0 0.1 0.1 0.4 0 0.1 0 0.1zm160.2-322.2c1.3-0.1 7.4 5.2 13.7 11.6 6.2 6.5 15.9 17.4 21.5 24.2 5.6 6.8 14.3 18.9 19.3 26.9 5 8 13.2 23.1 18.1 33.6 4.9 10.5 11.6 28.2 14.8 39.3 3.2 11.1 7.3 29.2 9.1 40.3 1.8 11 3.3 34.9 3.4 86.2-5.9 5.6-12.1 11.1-17 15.1-5.5 4.2-12.2 9.1-17.9 12.8-6.4 4.4-15.2 9.7-22.4 13.6-7.2 3.7-15.8 7.7-22.4 10.4-2.6 1-5.7 2.2-8.9 3.3l4-20c2.2-11.3 4.8-30.6 5.8-42.9 1-12.3 0.9-33-0.2-46-1-12.9-3.4-29.6-5.3-37-2-7.4-5.6-19-8.1-25.8-2.5-6.7-7.1-17.3-10.2-23.5-3.2-6.2-9.9-17.3-14.9-24.7-5.1-7.4-16.3-20.6-24.9-29.3-8.5-8.6-19.4-18.7-33-29.1 3.6-2.8 7-5.2 9.4-6.9 5.2-3.5 16.1-10 25.1-14.8q0.9-0.5 1.8-1 0.3-0.2 0.7-0.4c9.3-4.9 24.4-11.3 34-14.5q2.1-0.6 4.3-1.3 0.1 0 0.2-0.1z"/>
	<path id="Remplissage couleur unie 2" fill-rule="evenodd" class="s2" d="m253.9 74.2c39.1 0.6 48.1 1.4 69.5 6.5 13.6 3.2 33.8 9.5 44.9 14 11.1 4.5 22.7 9.4 31.4 13.9l-6.7 4c-3.7 2.3-14.8 9.4-24.7 15.9-9.9 6.6-23.7 16.7-43.5 33.4l-16.4-4c-9-2.1-26.4-4.7-38.8-5.7-12.3-0.9-32-0.9-43.7 0-11.7 0.9-30.6 3.7-42 6.2-11.4 2.5-22.1 5.9-23.6 7.4-1.6 1.5-4.7 12.4-6.9 24.1-2.3 11.7-4.7 32.4-5.3 46-0.8 14.4-0.2 32.5 1.4 43.7 1.4 10.5 4.7 26.6 7.2 35.9 2.5 9.2 7.6 23.8 11.3 32.5 3.8 8.6 12.2 23.7 18.8 33.6 6.5 9.9 18 24 25.5 31.4 10.7 10.6 13.7 14.9 13.6 20.2 0 3.7 1.4 14.8 3.2 24.6 1.7 9.9 5.2 26.6 7.6 37 2.5 10.5 6.7 23.9 9.2 29.8 2.6 5.8 6.9 12.8 9.7 15.4 3.5 3.4 0.3 2.3-10.6-3.6-8.7-4.6-24.2-14.1-34.5-21.1-10.3-6.9-29.4-22.7-42.4-35-12.9-12.4-30-31-37.8-41.5-7.9-10.5-19.3-28.7-25.3-40.4-6-11.7-13.1-26.8-15.7-33.6-2.6-6.8-6.8-20.4-9.4-30.3-2.5-9.8-6-28.5-7.7-41.5-1.7-12.9-3.2-33.8-3.2-46.5 0-12.6 1.4-34.3 3.3-48.2 1.8-13.9 5.8-35.3 8.9-47.6 3.1-12.4 8-27 10.8-32.5 4.4-8.6 7.7-11.4 21.9-18.6 9.2-4.6 26.3-10.9 38-13.9 11.7-3.1 29.4-7.1 39.3-8.9 13.1-2.4 30-3.2 62.7-2.6zm222 88.9c1.3-0.1 7.4 5.2 13.7 11.6 6.2 6.5 15.9 17.4 21.5 24.2 5.6 6.8 14.3 18.9 19.3 26.9 5 8 13.2 23.1 18.1 33.6 4.9 10.5 11.6 28.2 14.8 39.3 3.2 11.1 7.3 29.2 9.1 40.3 1.8 11.1 3.3 35.3 3.4 87.5l-9.6 8c-5.3 4.5-16.6 12.8-25.3 18.6-8.6 5.9-21.7 13.5-29.1 17.1-7.4 3.5-16 7.3-24.7 10.6l4.1-20.4c2.2-11.3 4.8-30.6 5.8-42.9 1-12.3 0.9-33-0.2-46-1-12.9-3.4-29.6-5.3-37-2-7.4-5.6-19-8.1-25.8-2.5-6.7-7.1-17.3-10.2-23.5-3.2-6.2-9.9-17.3-14.9-24.7-5.1-7.4-16.3-20.6-24.9-29.3-8.7-8.8-19.8-19-33.7-29.6l10.1-6.6c5.5-3.7 17.6-10.7 26.9-15.6 9.2-4.9 21.3-10.5 26.9-12.5 5.5-2 11.1-3.6 12.3-3.8z"/>
	<path id="Remplissage couleur unie 3" class="s3" d="m343.6 229.4c-9.8 1.8-24 4.8-31.4 6.8-7.4 1.9-21.5 6.4-31.4 9.9-9.9 3.6-21.7 9.8-26.4 13.8-6.4 5.5-9.8 11.3-13.8 23.1-2.9 8.6-7.5 26.8-10.3 40.3-3.7 18.2-5.3 35.3-6.1 65-0.7 29.7-0.1 46.7 2.5 63.9 1.9 13 6.1 32.7 9.3 43.8 3.2 11.1 10.7 30.2 16.5 42.6 5.9 12.3 15 29 20.4 37 5.3 8 14.8 20.6 21 28 6.3 7.4 15.5 17.6 20.5 22.6 5 5.1 16.1 15.2 24.7 22.5 8.7 7.3 22.8 17.9 31.4 23.7 8.7 5.7 24.8 14.9 35.9 20.4 11.1 5.6 27.8 12.7 37 15.9 9.3 3.2 26.4 7.9 38.1 10.5 14 3 33.6 5.1 57.2 5.9 23 0.9 44 0.3 58.3-1.4 12.3-1.6 34-5.8 48.2-9.5 14.2-3.6 32.1-9.6 39.8-13.2 9.3-4.4 15.5-9.1 18.5-13.9 2.5-4 6.6-13.8 9.1-21.8 2.5-8.1 7.1-27.2 10.2-42.6 3.5-17.3 6.2-39.7 7-58.3 0.7-17.9 0.1-39.9-1.4-53.9-1.5-12.9-4.8-32.6-7.4-43.7-2.6-11.1-7-26.5-10-34.2-2.9-7.7-8.9-21.3-13.4-30.2-4.5-9-12.9-23.4-18.7-32-5.8-8.6-20-25.6-31.6-37.8-11.6-12.2-30.2-29-41.3-37.4-11.1-8.4-27.8-19.9-37-25.4-9.3-5.6-17-9.9-17.2-9.7-0.3 0.2 3.4 12 8.2 26.2 4.8 14.2 10.2 35.4 12.2 47.1 1.9 11.7 3.6 25.3 3.6 30.3 0.1 8 1.7 10.7 15.7 25.2 8.6 8.9 19 21.6 23.1 28 4.2 6.5 10.6 17.9 14.4 25.3 3.7 7.4 8.9 20.5 11.5 29.1 2.7 8.6 6.4 24.8 8.4 35.9 2.7 15.2 3.2 27.6 2.1 50.4-0.7 16.7-3.4 40.4-5.8 52.7-2.5 12.4-5.3 23.1-6.2 23.8-0.9 0.8-8.7 3.1-17.3 5.1-8.7 2-22.8 4.7-31.4 6-8.7 1.3-25.3 2.3-37 2.3-11.7 0-28.9-1.1-38.1-2.4-9.3-1.3-25.4-5-35.9-8.1-10.5-3.2-26.6-9.5-35.9-14.1-9.2-4.6-23.5-12.9-31.7-18.3-8.2-5.5-22.3-16.6-31.4-24.7-9.1-8.1-22.9-23.2-30.8-33.6-7.8-10.4-17.7-25.8-21.8-34.1-4.2-8.3-9.6-20.4-12-26.9-2.4-6.5-5.8-17.8-7.6-25.2-1.8-7.4-3.9-19-4.7-25.8-0.8-6.8-1.5-24.4-1.4-39.2 0.1-17.1 1.8-35.9 4.7-51.6l4.6-24.7c18.1-5.9 32.4-9.2 43.5-11.2 11.1-1.9 32.3-3.5 47.1-3.5 14.8 0 35 1.5 44.9 3.4 9.8 1.8 22.2 4.9 27.4 6.8 7.3 2.6 9.6 2.7 9.5 0.6 0-1.5-2.9-9.4-6.3-17.4-3.4-8-10.9-21.6-16.6-30.2-5.8-8.7-15.8-21.5-22.3-28.6l-11.9-12.8c-50.4 0.2-73.1 1.7-83 3.5z"/>
	<path id="Remplissage couleur unie 1" fill-rule="evenodd" class="s4" d="m560 74.3c39.5 0.6 49.3 1.5 69.5 6.3 13 3.1 31.6 8.5 41.5 12 9.9 3.6 20.9 8.5 24.6 11 3.6 2.4 8.7 7.5 11.2 11.2 2.6 3.7 7.1 15.3 10 25.8 2.9 10.5 7.2 30.1 9.6 43.7 3 17.3 4.3 35.4 4.3 60.5 0.1 22.1-1.2 44.1-3.4 57.2-1.9 11.7-6 30.4-9.2 41.5-3.2 11.1-9.6 28-22.4 54.9l-4.6-8.4c-2.6-4.6-8.7-14.4-13.8-21.8-5-7.4-15.2-20.1-36-42.6l4.1-14.6c2.2-8 4.9-25.7 6.1-39.3 1.1-13.5 1.3-34.7 0.3-47-0.9-12.4-3.3-30.5-5.3-40.4-1.9-9.9-3.5-18.2-3.5-18.5 0-0.3-7.3-2.7-16.3-5.3-8.9-2.5-27.1-6.1-40.3-7.8-18.2-2.4-30.4-2.6-49.4-1.1-13.9 1.2-30.2 3.2-36.4 4.6-6.2 1.3-19.3 5.1-29.2 8.3-9.8 3.3-25.5 10-34.7 14.9-9.3 4.9-21.4 12-26.9 15.8-5.6 3.8-16.2 12.1-23.6 18.4-11.4 9.7-15.3 11.8-25.8 13.2-6.7 0.9-21.9 3.7-33.6 6.2-11.7 2.5-29.9 7.5-40.3 11.2-10.5 3.7-22.4 8.6-26.4 10.9-4 2.4-7.3 3.8-7.3 3.2 0-0.6 2.7-6.4 5.9-12.9 3.3-6.5 11-19.3 17.2-28.6 6.3-9.2 22-27.5 35-40.5 13.1-13.1 31.3-29.3 40.6-36.1 9.2-6.9 23.4-16.4 31.4-21.4 8-4.9 23.9-13.1 35.3-18.2 11.4-5.2 29.6-11.9 40.3-14.9 10.8-3.1 27.7-7.1 37.6-8.9 13.2-2.5 30.1-3.1 63.9-2.5zm41.5 325.3l7.3 8.9c4 5 12.4 19.1 18.6 31.4 6.2 12.3 11.5 25.4 11.8 29 0.3 5.6-2.1 8.6-17.5 21.8-9.9 8.4-26 20.8-35.9 27.5-9.9 6.7-28 17.2-40.4 23.3-12.3 6.1-31 13.7-41.5 17-10.4 3.2-26.6 7.4-35.8 9.3-9.3 1.9-34.2 4.2-93.9 6.6l-6-5.6c-3.3-3-12.1-13.6-19.5-23.5-7.5-9.9-18-27-23.4-38.1-5.4-11.1-9.7-21.2-9.7-22.4 0.1-1.4 5.7-0.8 14.1 1.4 7.7 2 24 4.9 36.4 6.5 14.1 1.8 32.7 2.3 50.4 1.4 15.4-0.7 35.6-3.3 44.8-5.6 9.3-2.3 24.9-7.5 34.8-11.4 9.9-4 24-10.9 31.4-15.4 7.4-4.4 19-12.1 25.8-17 6.8-4.9 20.4-17.1 30.2-27z"/>
</svg>