<svg version="1.2" xmlns="http://www.w3.org/2000/svg" viewBox="0 0 800 800" width="800" height="800">
	<title>Nouveau projet</title>
	<defs>
		<linearGradient id="g1" x2="1" gradientUnits="userSpaceOnUse" gradientTransform="matrix(-81.666,-777,777,-81.666,440.333,782)">
			<stop offset="0" stop-color="#90a1b9" stop-opacity=".1"/>
			<stop offset="1" stop-color="#90a1b9" stop-opacity=".1"/>
		</linearGradient>
		<filter x="-50%" y="-50%" width="200%" height="200%" id="f1" ><feDropShadow dx="-0.3487823687206262" dy="4.987820251299121" stdDeviation="5.833333333333334" flood-color="#000000" flood-opacity=".2"/></filter>
	</defs>
	<style>
		.s0 { fill: url(#g1);stroke: #90a1b9;stroke-miterlimit:100 } 
		.s1 { filter: url(#f1);fill: #ff9800 } 
		.s2 { fill: #ff9800 } 
		.s3 { fill: #67e8f9 } 
		.s4 { fill: #00bcd4 } 
	</style>
	<path id="Forme 1" fill-rule="evenodd" class="s0" d="m399.5 782c-214.8 0-388.5-173.7-388.5-388.5 0-214.8 173.7-388.5 388.5-388.5 214.8 0 388.5 173.7 388.5 388.5 0 214.8-173.7 388.5-388.5 388.5z"/>
	<path id="Remplissage couleur unie 2 copy" fill-rule="evenodd" class="s1" d="m153.7 29.1c-11.4 2.1-31.7 6.7-45.2 10.2-13.5 3.6-33.1 10.8-43.7 16.1-16.4 8.3-20.1 11.4-25.2 21.3-3.2 6.4-8.8 23.2-12.4 37.4-3.6 14.2-8.2 38.9-10.3 54.9-2.1 15.9-3.8 40.9-3.8 55.4 0 14.6 1.7 38.7 3.7 53.6 1.9 14.9 6 36.4 8.9 47.7 2.9 11.4 7.8 27.1 10.7 34.9 3 7.8 11.2 25.2 18.1 38.7 7 13.5 20 34.4 29.1 46.4 9.1 12.1 28.7 33.6 43.6 47.8 14.9 14.2 36.8 32.3 48.7 40.3 11.9 8 29.8 19 39.7 24.3q6.6 3.5 10 5.1-0.7-1.4-1.3-2.6c-1.4-3-2.9-6.2-4.4-9.7-1.2-2.2-2.3-4.4-3.2-6.5-1.4-3.1-3.1-8.2-4.9-13.9-2.7-7.1-5-13.8-6.5-19-3.6-12.7-8.5-35.4-10.7-50.3-1.4-9.2-2.3-18.4-2.8-29.1-2.1-3.9-6.3-8.7-13.8-16-8.6-8.6-21.8-24.8-29.4-36.2-7.5-11.3-17.2-28.7-21.5-38.7-4.4-9.9-10.2-26.8-13.1-37.4-2.9-10.6-6.6-29.2-8.3-41.3-1.8-12.8-2.5-33.7-1.6-50.3 0.8-15.6 3.5-39.4 6.1-52.9 2.5-13.5 6.1-26 7.9-27.8 1.8-1.7 14.1-5.5 27.2-8.4 13.1-2.9 34.9-6.1 48.4-7.2 13.5-1.1 36.1-1 50.3 0.1 14.2 1 34.3 4 44.6 6.5l18.8 4.5c6.8-5.6 12.9-10.6 18.5-15 4.8-4.1 9-7.6 12.3-10 10.6-7.8 26.9-18.8 36.1-24.5q1.9-1.1 4.2-2.5 0 0 0 0c9.9-5.6 25.1-13.4 36.5-18.5 13.1-5.9 34-13.7 46.4-17.2 12.4-3.5 31.9-8.1 43.2-10.2 15.2-2.8 34.7-3.6 73.6-2.9 45.4 0.8 56.7 1.8 80 7.3 14.9 3.6 36.4 9.8 47.7 13.9 11.4 4 24.1 9.7 28.3 12.5 4.2 2.9 10 8.7 13 12.9 2.9 4.3 8.1 17.7 11.4 29.7 3.3 12.1 8.3 34.7 11 50.3 3.5 19.9 5 40.8 5.1 69.7 0 25.4-1.5 50.8-3.9 65.8-2.2 13.5-7 35-10.7 47.8-3.7 12.7-11 32.2-25.8 63.2l-5.3-9.7c-1.8-3.3-5.3-9-9-14.9-1.8-2.8-3.5-5.4-5-7.7q-1-1.5-2.3-3.3c-6-8.6-17.7-23-40.9-48.3l4.6-16.8c2.6-9.2 5.8-29.5 7.1-45.1 1.3-15.6 1.5-40 0.4-54.2-1.1-14.2-3.9-35.1-6.1-46.5-2.3-11.3-4.1-20.9-4.1-21.3 0-0.3-8.5-3-18.7-6-10.3-3-31.2-7-46.5-9-20.9-2.8-34.9-3.1-56.8-1.3-15.9 1.4-34.8 3.7-41.9 5.3-6.1 1.3-18.2 4.7-28.6 8-1.8 0.3-7.9 2.2-14 4.3-6.2 2.2-19.6 8.4-30.1 14q-0.4 0.2-0.8 0.4-1.1 0.5-2.1 1.1c-10.3 5.6-22.9 12.9-28.9 16.8l-11.6 7.7q0.4 0.3 0.8 0.6c-5.5 4.2-11.5 9-16.3 13.2-13.1 11.2-17.7 13.5-29.7 15.1-3.1 0.4-7.9 1.2-13.3 2.2q-3.6 0.4-6 0.9c-11.4 2-27.6 5.5-36.2 7.7-8.5 2.3-24.7 7.4-36.1 11.5-2.8 1-5.7 2.2-8.5 3.4-6.8 2.8-12.7 5.4-15.4 7-4.6 2.7-8.3 4.3-8.3 3.6 0-0.7 3-7.4 6.8-14.8 3.7-7.5 12.6-22.3 19.8-32.9 7.1-10.7 25.2-31.7 40.3-46.7 10.3-10.4 23.6-22.5 34.3-31.6 13.4-10.7 23.6-18 31.7-23.3 7.2-4.8 15.1-10 20.9-13.7 3.3-2.1 5.9-3.7 7.4-4.6l7.8-4.7c-10-5.1-23.4-10.8-36.1-16-12.8-5.1-36-12.4-51.7-16.1-24.7-5.8-35.1-6.8-80-7.5-37.7-0.6-57.1 0.2-72.2 3zm38.1 403c-0.5-12.1-0.5-26.2 0-44.4 0.8-34.2 2.7-54 6.9-74.9 3.2-15.6 8.6-36.5 11.9-46.4 4.6-13.6 8.5-20.2 15.9-26.5 4.1-3.6 12.9-8.5 21.9-12.5 4.7-1.9 10-3.9 15-5.6 12-4.3 32.9-10.1 46.4-13 8-1.7 17.4-3.5 25.4-4.9 13.7-1.7 40-3 89.4-3.2l13.7 14.8c7.5 8.1 19.1 22.9 25.7 32.8 6.6 10 15.2 25.6 19.1 34.9 4 9.2 7.2 18.2 7.3 20 0 2.4-2.5 2.3-10.9-0.8-6.1-2.1-20.3-5.6-31.6-7.8-11.4-2.1-34.6-3.9-51.6-3.9-17.1 0-41.5 1.9-54.2 4.1-12.8 2.2-29.3 6-50.1 12.9l-5.3 28.4c-3.4 18-5.3 39.6-5.4 59.3-0.1 17 0.6 37.4 1.5 45.2 1 7.8 3.4 21.1 5.5 29.6 2 8.5 6 21.5 8.7 29 0.5 1.9 2.9 7.7 6.2 14.9 2.5 5.6 5.2 11.4 7.6 16.1 3.1 6.3 9.1 16.1 15.4 25.5 3.1 4.7 6.1 9.1 8.8 12.6 8.6 11.4 18.7 23.5 22.5 27.1l6.9 6.4q0.1 0 0.3 0c2.4 2.4 4.6 4.5 6.7 6.3 10.4 9.4 26.7 22.1 36.1 28.4 9.4 6.3 25.9 15.8 36.5 21.1 10.6 5.3 29.2 12.6 41.3 16.2 12.1 3.7 30.6 7.9 41.3 9.4 10.6 1.5 30.4 2.7 43.8 2.7 13.5 0.1 32.7-1.2 42.6-2.7 10-1.5 26.2-4.6 36.2-6.9 9.9-2.3 18.9-4.9 19.9-5.8 1.1-0.8 4.2-13.2 7.1-27.4 2.8-14.2 5.9-41.4 6.7-60.6 1.3-26.2 0.6-40.6-2.4-58.1-2.3-12.7-6.6-31.3-9.6-41.3-3.1-9.9-9.1-25-13.4-33.5-4.2-8.5-11.7-21.6-16.4-29q-1-1.5-2.3-3.3c-1.7-2.7-3.3-4.9-4.5-6.4l-8.4-10.3-0.2 0.2c-3.7-4.4-7.7-8.7-11.3-12.5-16-16.7-18-19.8-18-29-0.1-5.7-2-21.4-4.2-34.9-2.2-13.4-8.5-37.8-14-54.1-5.5-16.4-9.8-29.9-9.5-30.2 0.2-0.3 9.2 4.7 19.8 11.1 10.7 6.4 29.8 19.6 42.6 29.2 12.8 9.7 34.1 29.1 47.5 43.1 12 12.6 26.5 29.7 34.1 40.2q0.3 0.4 0.5 0.7c2.2 3.2 4.5 6.8 6.8 10.3 5.9 9.5 12.5 21.2 16.5 29.1 5.2 10.3 12.2 26 15.5 34.8 3.4 8.9 8.5 26.6 11.5 39.4 2.9 12.8 6.7 35.4 8.4 50.3 1.9 16 2.5 41.3 1.7 61.9-0.9 21.5-4 47.3-8 67.1-3.6 17.8-8.9 39.8-11.8 49.1-2.9 9.2-7.6 20.5-10.4 25.1-3.5 5.6-10.7 11-21.3 16-8.9 4.2-29.5 11-45.9 15.2-16.3 4.3-41.2 9.1-55.4 10.9-16.6 2-40.7 2.6-67.1 1.7-27.2-1-49.7-3.4-65.8-6.9-13.5-3-33.3-8.4-43.9-12.1-10.6-3.6-29.8-11.8-42.6-18.2-12.8-6.4-31.3-17-41.3-23.6-9.9-6.6-26.2-18.8-36.1-27.2-9.9-8.4-22.8-20.1-28.5-25.9-5.8-5.8-16.3-17.5-23.5-26-7.2-8.5-18.1-23-24.2-32.3-5.8-8.6-15.5-26.1-22.2-39.9 4.2 1.9 4.9 1.6 2.3-0.9-2.2-2.2-5.3-6.6-8-11.4-2.7-6.5-5.6-13.6-8.1-20.4-2.1-6.5-4.1-13.8-5.6-20.3-2.9-12-6.9-31.2-8.9-42.5-2-11.4-3.6-24.2-3.6-28.4 0-2.4-0.5-4.6-1.9-7.2zm105.3 67.2c1.4 3.7 3.6 9.2 6.1 14.8 1.5 3.2 3.2 6.7 4.9 10.3 4.3 8.8 11.3 20.9 18.1 31.3 3.3 4.9 6.6 9.6 9.7 13.7 7.3 9.7 19.1 22.8 28.8 32.4 68.5-2.8 97.1-5.4 107.7-7.5 10.6-2.2 29.2-7.1 41.3-10.8 12-3.8 33.5-12.6 47.7-19.6 14.2-7 35.1-19.1 46.5-26.8 11.3-7.7 29.9-21.9 41.3-31.6 17.7-15.2 20.5-18.7 20.1-25.2-0.3-4.1-6.4-19.1-13.6-33.3-5.3-10.5-11.9-22-16.9-29.7-3.2-4.6-8-10.5-13.1-16.5l-20.4 20.6c-2.8 2.8-5.9 5.8-9 8.7q0 0.7 0 1.4l-11 9.3c-2.1 1.8-5.1 4.1-8.5 6.7-2.4 2-4.6 3.7-6.4 5-7.8 5.7-21.1 14.5-29.6 19.6-2.8 1.7-6.4 3.7-10.4 5.7-2.9 1.6-5.5 3-7.7 4-8.5 4.1-18.4 8.5-28.4 12.3l0.1-0.5c-10.2 3.7-21.9 7.4-29.8 9.3-10.6 2.7-33.8 5.6-51.6 6.5-20.3 1-41.7 0.4-58-1.7-14.2-1.8-33.1-5.1-41.9-7.4-9.7-2.6-16.1-3.2-16.2-1.7q0 0.2 0.1 0.6 0 0 0.1 0.1zm184.3-370.8c1.4-0.1 8.5 5.9 15.7 13.3 7.2 7.5 18.4 20 24.8 27.8 6.4 7.8 16.4 21.8 22.2 31 5.8 9.2 15.2 26.6 20.9 38.7 5.6 12 13.3 32.4 17 45.1 3.7 12.8 8.4 33.7 10.5 46.5 2 12.7 3.7 40.2 3.8 99.2-6.7 6.4-13.8 12.7-19.5 17.4-6.3 4.8-14.1 10.4-20.5 14.7-7.4 5-17.7 11.1-25.9 15.6-8.2 4.3-18.1 8.9-25.8 12-3 1.2-6.5 2.5-10.2 3.8l4.6-23c2.5-13 5.5-35.2 6.7-49.4 1.1-14.2 1-38-0.2-52.9-1.2-14.9-4-34.1-6.2-42.6-2.2-8.5-6.4-21.8-9.2-29.6-2.9-7.9-8.3-20-11.9-27.1-3.6-7.1-11.3-19.9-17.1-28.4-5.8-8.5-18.7-23.7-28.7-33.8-9.8-9.9-22.3-21.5-37.9-33.4 4.2-3.2 8-6.1 10.8-8 6-4.1 18.6-11.5 28.9-17.1q1-0.6 2.1-1.1 0.4-0.2 0.8-0.4c10.7-5.7 28.1-13.1 39.2-16.7q2.3-0.8 4.9-1.6 0.1 0 0.2 0z"/>
	<path id="Remplissage couleur unie 2" fill-rule="evenodd" class="s2" d="m225.9 26.1c44.9 0.7 55.3 1.7 80 7.5 15.7 3.7 38.9 11 51.7 16.1 12.7 5.2 26.1 10.9 36.1 16l-7.8 4.7c-4.2 2.5-17 10.8-28.3 18.3-11.4 7.5-27.3 19.2-50.2 38.3l-18.8-4.5c-10.3-2.5-30.4-5.5-44.6-6.5-14.2-1.1-36.8-1.2-50.3-0.1-13.5 1.1-35.3 4.3-48.4 7.2-13.1 2.9-25.4 6.7-27.2 8.4-1.8 1.8-5.4 14.3-7.9 27.8-2.6 13.5-5.3 37.3-6.1 52.9-0.9 16.6-0.2 37.5 1.6 50.3 1.7 12.1 5.4 30.7 8.3 41.3 2.9 10.6 8.7 27.5 13.1 37.4 4.3 10 14 27.4 21.5 38.7 7.6 11.4 20.8 27.6 29.4 36.2 12.4 12.1 15.7 17.1 15.7 23.2 0 4.2 1.6 17 3.6 28.4 2 11.3 6 30.5 8.9 42.5 2.8 12.1 7.6 27.5 10.5 34.2 3 6.8 8 14.8 11.2 17.9 4 3.8 0.2 2.5-12.3-4.2-9.9-5.3-27.8-16.3-39.7-24.3-11.9-8-33.8-26.1-48.7-40.3-14.9-14.2-34.5-35.7-43.6-47.8-9.1-12-22.1-32.9-29.1-46.4-6.9-13.5-15.1-30.9-18.1-38.7-2.9-7.8-7.8-23.5-10.7-34.9-2.9-11.3-7-32.8-8.9-47.7-2-14.9-3.7-39-3.7-53.6 0-14.5 1.7-39.5 3.8-55.4 2.1-16 6.7-40.7 10.3-54.9 3.6-14.2 9.2-31 12.4-37.4 5.1-9.9 8.8-13 25.2-21.3 10.6-5.3 30.2-12.5 43.7-16.1 13.5-3.5 33.8-8.1 45.2-10.2 15.1-2.8 34.5-3.6 72.2-3zm255.5 102.4c1.4-0.1 8.5 5.9 15.7 13.3 7.2 7.5 18.4 20 24.8 27.8 6.4 7.8 16.4 21.8 22.2 31 5.8 9.2 15.2 26.6 20.9 38.7 5.6 12 13.3 32.4 17 45.1 3.7 12.8 8.4 33.7 10.5 46.5 2 12.8 3.7 40.6 3.8 100.6l-11 9.3c-6 5.1-19.1 14.8-29 21.4-10 6.7-25.1 15.5-33.6 19.6-8.5 4.1-18.4 8.5-28.4 12.3l4.7-23.5c2.5-13 5.5-35.2 6.7-49.4 1.1-14.2 1-38-0.2-52.9-1.2-14.9-4-34.1-6.2-42.6-2.2-8.5-6.4-21.8-9.2-29.6-2.9-7.9-8.3-20-11.9-27.1-3.6-7.1-11.3-19.9-17.1-28.4-5.8-8.5-18.7-23.7-28.7-33.8-9.9-10.1-22.7-21.9-38.7-34l11.6-7.7c6.4-4.2 20.3-12.2 31-17.9 10.6-5.7 24.5-12.1 30.9-14.4 6.4-2.2 12.8-4.2 14.2-4.3z"/>
	<path id="Remplissage couleur unie 3" class="s3" d="m329.2 204.8c-11.4 2-27.6 5.5-36.2 7.7-8.5 2.3-24.7 7.4-36.1 11.5-11.4 4.1-25 11.2-30.4 15.9-7.4 6.3-11.3 12.9-15.9 26.5-3.3 9.9-8.7 30.8-11.9 46.4-4.2 20.9-6.1 40.7-6.9 74.9-0.9 34.1-0.2 53.6 2.8 73.5 2.2 14.9 7.1 37.6 10.7 50.3 3.7 12.8 12.3 34.9 19 49.1 6.7 14.2 17.3 33.3 23.5 42.5 6.1 9.3 17 23.8 24.2 32.3 7.2 8.5 17.7 20.2 23.5 26 5.7 5.8 18.6 17.5 28.5 25.9 9.9 8.4 26.2 20.6 36.1 27.2 10 6.6 28.5 17.2 41.3 23.6 12.8 6.4 32 14.6 42.6 18.2 10.6 3.7 30.4 9.1 43.9 12.1 16.1 3.5 38.6 5.9 65.8 6.9 26.4 0.9 50.5 0.3 67.1-1.7 14.2-1.8 39.1-6.6 55.4-10.9 16.4-4.2 37-11 45.9-15.2 10.6-5 17.8-10.4 21.3-16 2.8-4.6 7.5-15.9 10.4-25.1 2.9-9.3 8.2-31.3 11.8-49.1 4-19.8 7.1-45.6 8-67.1 0.8-20.6 0.2-45.9-1.7-61.9-1.7-14.9-5.5-37.5-8.4-50.3-3-12.8-8.1-30.5-11.5-39.4-3.3-8.8-10.3-24.5-15.5-34.8-5.1-10.3-14.8-26.8-21.5-36.8-6.6-9.9-23-29.5-36.4-43.5-13.4-14-34.7-33.4-47.5-43.1-12.8-9.6-31.9-22.8-42.6-29.2-10.6-6.4-19.6-11.4-19.8-11.1-0.3 0.3 4 13.8 9.5 30.2 5.5 16.3 11.8 40.7 14 54.1 2.2 13.5 4.1 29.2 4.2 34.9 0 9.2 2 12.3 18 29 9.9 10.3 21.9 24.8 26.7 32.3 4.7 7.4 12.2 20.5 16.4 29 4.3 8.5 10.3 23.6 13.4 33.5 3 10 7.3 28.6 9.6 41.3 3 17.5 3.7 31.9 2.4 58.1-0.8 19.2-3.9 46.4-6.7 60.6-2.9 14.2-6 26.6-7.1 27.4-1 0.9-10 3.5-19.9 5.8-10 2.3-26.2 5.4-36.2 6.9-9.9 1.5-29.1 2.8-42.6 2.7-13.4 0-33.2-1.2-43.8-2.7-10.7-1.5-29.2-5.7-41.3-9.4-12.1-3.6-30.7-10.9-41.3-16.2-10.6-5.3-27.1-14.8-36.5-21.1-9.4-6.3-25.7-19-36.1-28.4-10.5-9.3-26.4-26.7-35.5-38.7-9-11.9-20.3-29.6-25.1-39.2-4.8-9.5-11-23.5-13.7-30.9-2.8-7.5-6.7-20.5-8.8-29.1-2.1-8.5-4.5-21.8-5.5-29.6-0.9-7.8-1.6-28.2-1.5-45.2 0.1-19.7 2-41.3 5.4-59.3l5.3-28.4c20.8-6.9 37.3-10.7 50.1-12.9 12.7-2.2 37.1-4.1 54.2-4.1 17 0 40.2 1.8 51.6 3.9 11.3 2.2 25.5 5.7 31.6 7.8 8.4 3.1 10.9 3.2 10.9 0.8-0.1-1.8-3.3-10.8-7.3-20-3.9-9.3-12.5-24.9-19.1-34.9-6.6-9.9-18.2-24.7-25.7-32.8l-13.7-14.8c-58 0.3-84.1 2-95.4 4.1z"/>
	<path id="Remplissage couleur unie 1" fill-rule="evenodd" class="s4" d="m578.2 26.2c45.4 0.8 56.7 1.8 80 7.3 14.9 3.6 36.4 9.8 47.7 13.9 11.4 4 24.1 9.7 28.3 12.5 4.2 2.9 10 8.7 13 12.9 2.9 4.3 8.1 17.7 11.4 29.7 3.3 12.1 8.3 34.7 11 50.3 3.5 19.9 5 40.8 5.1 69.7 0 25.4-1.5 50.8-3.9 65.8-2.2 13.5-7 35-10.7 47.8-3.7 12.7-11 32.2-25.8 63.2l-5.3-9.7c-2.9-5.3-10-16.6-15.8-25.2-5.8-8.5-17.5-23-41.4-49l4.6-16.8c2.6-9.2 5.8-29.5 7.1-45.1 1.3-15.6 1.5-40 0.4-54.2-1.1-14.2-3.9-35.1-6.1-46.5-2.3-11.3-4.1-20.9-4.1-21.3 0-0.3-8.5-3-18.7-6-10.3-3-31.2-7-46.5-9-20.9-2.8-34.9-3.1-56.8-1.3-15.9 1.4-34.8 3.7-41.9 5.3-7.1 1.5-22.2 5.9-33.5 9.6-11.4 3.7-29.4 11.4-40 17.1-10.7 5.7-24.6 13.9-31 18.2-6.4 4.4-18.6 13.9-27.1 21.2-13.1 11.2-17.7 13.5-29.7 15.1-7.8 1.1-25.2 4.3-38.7 7.1-13.5 2.9-34.4 8.7-46.4 13-12.1 4.2-25.7 9.9-30.4 12.6-4.6 2.7-8.3 4.3-8.3 3.6 0-0.7 3-7.4 6.8-14.8 3.7-7.5 12.6-22.3 19.8-32.9 7.1-10.7 25.2-31.7 40.3-46.7 15-15 36-33.7 46.6-41.6 10.6-7.8 26.9-18.8 36.1-24.5 9.2-5.6 27.5-15.1 40.7-21 13.1-5.9 34-13.7 46.4-17.2 12.4-3.5 31.9-8.1 43.2-10.2 15.2-2.8 34.7-3.6 73.6-2.9zm47.7 374.4l8.4 10.3c4.6 5.7 14.3 21.9 21.4 36.1 7.2 14.2 13.3 29.2 13.6 33.3 0.4 6.5-2.4 10-20.1 25.2-11.4 9.7-30 23.9-41.3 31.6-11.4 7.7-32.3 19.8-46.5 26.8-14.2 7-35.7 15.8-47.7 19.6-12.1 3.7-30.7 8.6-41.3 10.8-10.7 2.1-39.3 4.7-108 7.5l-6.9-6.4c-3.8-3.6-13.9-15.7-22.5-27.1-8.6-11.4-20.7-31.1-26.9-43.9-6.2-12.7-11.2-24.4-11.2-25.8 0.1-1.5 6.5-0.9 16.2 1.7 8.8 2.3 27.7 5.6 41.9 7.4 16.3 2.1 37.7 2.7 58 1.7 17.8-0.9 41-3.8 51.6-6.5 10.7-2.6 28.7-8.6 40-13.1 11.4-4.6 27.7-12.5 36.2-17.7 8.5-5.1 21.8-13.9 29.6-19.6 7.9-5.6 23.5-19.6 34.9-31.1z"/>
</svg>