<svg version="1.2" xmlns="http://www.w3.org/2000/svg" viewBox="0 0 800 800" width="800" height="800">
	<title>Nouveau projet</title>
	<defs>
		<linearGradient id="g1" x2="1" gradientUnits="userSpaceOnUse" gradientTransform="matrix(-82.822,-788,788,-82.822,440.411,793)">
			<stop offset="0" stop-color="#90a1b9" stop-opacity=".1"/>
			<stop offset="1" stop-color="#90a1b9" stop-opacity=".1"/>
		</linearGradient>
		<filter x="-50%" y="-50%" width="200%" height="200%" id="f1" ><feDropShadow dx="-0.3487823687206262" dy="4.987820251299121" stdDeviation="5.833333333333334" flood-color="#000000" flood-opacity=".2"/></filter>
	</defs>
	<style>
		.s0 { fill: url(#g1);stroke: #768497;stroke-miterlimit:100;stroke-width: 2 } 
		.s1 { display: none;filter: url(#f1);fill: #ff9800 } 
		.s2 { fill: #ff9800 } 
		.s3 { fill: #67e8f9 } 
		.s4 { fill: #00bcd4 } 
	</style>
	<path id="Forme 1" fill-rule="evenodd" class="s0" d="m399 793c-217.9 0-394-176.1-394-394 0-217.9 176.1-394 394-394 217.9 0 394 176.1 394 394 0 217.9-176.1 394-394 394z"/>
	<path id="Remplissage couleur unie 2 copy" fill-rule="evenodd" class="s1" d="m270.1 102.1c34.9 0.6 42.9 1.3 62.1 5.9 12.1 2.9 30.1 8.5 40 12.5 9.9 4 20.3 8.4 28.1 12.4l-6.1 3.6c-1.1 0.7-3.2 2-5.7 3.6q-1.8 1-3.3 1.9c-7.1 4.4-19.7 13-28 19.1-2.5 1.8-5.8 4.5-9.5 7.7-4.4 3.4-9.1 7.3-14.3 11.7l-14.6-3.6c-8.1-1.9-23.6-4.2-34.7-5-11-0.9-28.5-0.9-39-0.1-10.5 0.8-27.4 3.4-37.5 5.6-10.2 2.2-19.7 5.2-21.1 6.6-1.4 1.3-4.2 11-6.2 21.5-2 10.4-4.1 28.9-4.7 41-0.7 12.9-0.2 29.1 1.2 39.1 1.4 9.3 4.3 23.7 6.5 32 2.2 8.3 6.8 21.3 10.1 29 3.4 7.7 10.9 21.2 16.7 30.1 5.9 8.8 16.2 21.4 22.9 28 5.8 5.7 9 9.4 10.7 12.5 0.3 8.2 1 15.3 2.1 22.5 1.7 11.6 5.5 29.1 8.3 39.1 1.2 4 3 9.2 5 14.7 1.4 4.4 2.8 8.3 3.9 10.8 0.7 1.6 1.5 3.3 2.5 5 1.1 2.7 2.3 5.2 3.4 7.5q0.4 1 0.9 2-2.6-1.2-7.7-3.9c-7.7-4.2-21.5-12.6-30.8-18.8-9.2-6.3-26.2-20.3-37.8-31.4-11.6-11-26.8-27.6-33.8-37-7-9.4-17.2-25.6-22.6-36-5.4-10.5-11.7-24-14-30.1-2.3-6-6.1-18.2-8.3-27-2.3-8.8-5.4-25.5-7-37-1.5-11.6-2.8-30.3-2.8-41.6 0-11.3 1.3-30.6 2.9-43 1.6-12.4 5.2-31.5 8-42.6 2.8-11 7.1-24 9.7-29 3.9-7.7 6.8-10.1 19.5-16.5 8.2-4.1 23.5-9.7 33.9-12.5 10.5-2.7 26.3-6.3 35.1-7.9 11.7-2.2 26.8-2.8 56-2.4zm118.4 38c7.7-4.4 19.5-10.4 28.3-14.4 10.2-4.6 26.4-10.5 36-13.3 9.6-2.7 24.7-6.3 33.5-7.9 11.8-2.2 26.9-2.8 57.1-2.3 35.2 0.6 44 1.4 62.1 5.7 11.5 2.8 28.2 7.6 37 10.7 8.8 3.2 18.7 7.6 21.9 9.8 3.3 2.2 7.8 6.7 10.1 10 2.3 3.3 6.3 13.7 8.9 23 2.6 9.4 6.4 27 8.5 39.1 2.7 15.4 3.9 31.6 3.9 54 0.1 19.7-1.1 39.4-3 51.1-1.7 10.4-5.4 27.1-8.3 37-2.8 9.9-8.5 25-20 49.1l-4.1-7.5c-1.4-2.6-4.1-7-7-11.6-1.4-2.2-2.7-4.2-3.8-6q-0.8-1.1-1.8-2.5c-4.7-6.7-13.7-17.9-31.8-37.5l3.6-13c2-7.2 4.5-22.9 5.5-35 1-12.2 1.1-31.1 0.3-42.1-0.9-11-3-27.2-4.7-36-1.8-8.8-3.2-16.3-3.2-16.5 0-0.3-6.6-2.4-14.5-4.7-8-2.3-24.2-5.5-36.1-7-16.2-2.2-27-2.4-44-1-12.4 1-27 2.9-32.6 4.1-4.7 1-14 3.7-22.2 6.2-1.4 0.2-6.1 1.7-10.8 3.3-4.8 1.7-15.2 6.6-23.4 10.9q-0.3 0.1-0.6 0.3-0.8 0.4-1.6 0.9c-8 4.3-17.8 10-22.4 13l-9 5.9q0.3 0.3 0.6 0.5c-4.2 3.3-8.9 7-12.7 10.2-10.1 8.7-13.7 10.5-23 11.8-2.4 0.3-6.1 0.9-10.3 1.7q-2.8 0.3-4.7 0.7c-8.8 1.6-21.4 4.3-28 6-6.6 1.7-19.2 5.7-28.1 8.9-2.1 0.8-4.3 1.7-6.6 2.7-5.3 2.1-9.8 4.1-11.9 5.3-3.5 2.1-6.5 3.4-6.5 2.8 0-0.5 2.4-5.7 5.3-11.5 2.9-5.7 9.8-17.2 15.4-25.5 5.5-8.2 19.6-24.5 31.2-36.2 8.1-8 18.4-17.5 26.7-24.5 10.3-8.3 18.3-14 24.5-18.1 5.7-3.7 11.8-7.7 16.3-10.6zm-144.8 277.1c-0.5-9.5-0.5-20.4-0.1-34.5 0.7-26.6 2.1-41.9 5.4-58.1 2.5-12.1 6.6-28.3 9.2-36 3.6-10.6 6.6-15.7 12.3-20.6 3.2-2.7 10-6.6 17-9.6 3.7-1.5 7.8-3.1 11.7-4.4 9.3-3.3 25.5-7.8 36-10.1 6.2-1.3 13.5-2.7 19.7-3.8 10.6-1.3 31-2.3 69.4-2.5l10.6 11.5c5.8 6.3 14.8 17.7 19.9 25.5 5.1 7.7 11.8 19.8 14.9 27 3 7.1 5.5 14.1 5.6 15.5 0 1.9-2 1.8-8.5-0.6-4.7-1.6-15.7-4.4-24.5-6-8.8-1.7-26.8-3-40-3-13.3 0-32.2 1.4-42.1 3.1-9.9 1.7-22.7 4.7-38.9 10l-4 22c-2.6 14-4.2 30.8-4.3 46.1 0 13.2 0.5 28.9 1.3 35 0.7 6.1 2.6 16.4 4.2 23 1.6 6.6 4.6 16.7 6.8 22.5 0.3 1.5 2.2 6 4.8 11.6 1.9 4.3 4 8.8 5.8 12.5 2.5 4.9 7.1 12.5 12 19.7 2.4 3.7 4.7 7.1 6.8 9.8 6.7 8.8 14.5 18.3 17.5 21l5.3 5q0.2 0 0.3 0c1.8 1.8 3.6 3.5 5.2 4.9 8.1 7.2 20.7 17.1 28 22 7.3 4.9 20 12.3 28.3 16.4 8.3 4.1 22.7 9.7 32 12.6 9.4 2.8 23.8 6.1 32.1 7.2 8.2 1.2 23.5 2.2 34 2.2 10.5 0 25.3-1 33-2.1 7.7-1.2 20.3-3.6 28.1-5.4 7.7-1.8 14.6-3.8 15.4-4.5 0.9-0.7 3.3-10.2 5.5-21.2 2.2-11.1 4.6-32.2 5.3-47.1 0.9-20.3 0.4-31.5-1.9-45-1.8-9.9-5.1-24.4-7.5-32.1-2.4-7.7-7-19.4-10.3-26-3.4-6.6-9.1-16.7-12.8-22.5q-0.8-1.1-1.7-2.5c-1.4-2.1-2.6-3.9-3.6-5l-6.5-8-0.1 0.2c-2.9-3.4-6-6.8-8.8-9.7-12.4-13-13.9-15.4-14-22.6 0-4.4-1.5-16.5-3.2-27-1.8-10.4-6.7-29.4-10.9-42-4.3-12.7-7.6-23.2-7.4-23.4 0.2-0.2 7.1 3.7 15.4 8.6 8.3 5 23.1 15.2 33 22.7 9.9 7.5 26.5 22.5 36.9 33.4 9.3 9.7 20.5 23 26.5 31.2q0.2 0.3 0.3 0.5c1.7 2.5 3.6 5.3 5.3 8 4.6 7.4 9.8 16.4 12.8 22.6 4.1 8 9.5 20.1 12.1 27 2.5 6.9 6.6 20.6 8.8 30.5 2.3 9.9 5.3 27.5 6.6 39.1 1.4 12.4 1.9 32 1.3 48-0.7 16.6-3.1 36.7-6.2 52.1-2.8 13.7-6.9 30.9-9.1 38-2.3 7.2-5.9 15.9-8.1 19.5-2.7 4.3-8.3 8.5-16.6 12.4-6.9 3.3-22.9 8.6-35.5 11.9-12.7 3.2-32.1 7-43.1 8.4-12.8 1.5-31.5 2-52 1.3-21.1-0.8-38.6-2.6-51.1-5.4-10.4-2.3-25.7-6.5-34-9.3-8.3-2.9-23.1-9.2-33-14.2-9.9-4.9-24.4-13.1-32.1-18.2-7.7-5.2-20.3-14.7-28-21.2-7.7-6.5-17.7-15.5-22.1-20-4.5-4.5-12.7-13.6-18.3-20.2-5.5-6.7-14-17.9-18.8-25.1-4.4-6.7-11.9-20.2-17.2-31 3.3 1.5 3.9 1.3 1.8-0.7-1.7-1.6-4.1-5.1-6.1-8.8-2.2-5-4.4-10.5-6.4-15.8-1.5-5-3.1-10.8-4.3-15.7-2.3-9.4-5.3-24.3-6.9-33.1-1.5-8.8-2.8-18.7-2.8-22 0-1.8-0.4-3.6-1.4-5.5zm81.6 52c1.1 3 2.8 7.2 4.8 11.6 1.1 2.5 2.4 5.2 3.8 8 3.3 6.8 8.7 16.2 14 24.2 2.6 3.8 5.2 7.5 7.6 10.7 5.6 7.4 14.7 17.6 22.3 25.1 53.1-2.2 75.3-4.2 83.5-5.9 8.3-1.7 22.7-5.4 32-8.3 9.4-2.9 26.1-9.8 37.1-15.2 11-5.5 27.2-14.8 36-20.8 8.8-6 23.2-17 32.1-24.6 13.7-11.7 15.9-14.5 15.6-19.5-0.3-3.2-5-14.8-10.5-25.8-4.1-8.1-9.3-17.1-13.1-23-2.6-3.6-6.3-8.2-10.2-12.8l-15.9 15.9c-2.1 2.2-4.5 4.5-6.9 6.8q0 0.6 0 1.1l-8.6 7.2c-1.6 1.4-3.9 3.2-6.6 5.2-1.9 1.6-3.5 2.9-4.9 3.9-6.1 4.4-16.4 11.2-23 15.2-2.2 1.3-5 2.8-8.1 4.4-2.2 1.2-4.2 2.3-5.9 3.1-6.7 3.2-14.3 6.6-22.1 9.5l0.1-0.3c-7.9 2.8-17 5.7-23.1 7.2-8.2 2.1-26.3 4.3-40 5-15.8 0.8-32.4 0.3-45.1-1.3-11-1.4-25.6-4-32.5-5.8-7.5-2-12.4-2.5-12.5-1.3q0 0.2 0.1 0.5 0 0 0 0zm143-287.6c1.1-0.1 6.6 4.6 12.2 10.3 5.6 5.8 14.3 15.5 19.2 21.6 5 6 12.8 16.9 17.3 24 4.5 7.2 11.7 20.7 16.1 30 4.4 9.4 10.4 25.2 13.2 35.1 2.9 9.9 6.6 26.1 8.2 36 1.6 9.9 2.9 31.2 3 77-5.3 4.9-10.8 9.9-15.2 13.5-4.9 3.7-10.9 8.1-15.9 11.4-5.7 3.9-13.7 8.6-20.1 12.1-6.4 3.3-14 6.9-20 9.3-2.3 0.9-5 1.9-7.9 3l3.5-17.9c2-10.1 4.4-27.3 5.2-38.3 0.9-11 0.8-29.5-0.1-41.1-1-11.5-3.1-26.4-4.8-33-1.7-6.6-4.9-17-7.2-23-2.2-6.1-6.3-15.5-9.1-21-2.8-5.5-8.8-15.4-13.3-22.1-4.5-6.6-14.5-18.4-22.3-26.2-7.6-7.6-17.3-16.6-29.4-25.9 3.2-2.5 6.2-4.7 8.4-6.2 4.6-3.1 14.4-8.9 22.4-13.2q0.8-0.5 1.6-0.9 0.3-0.2 0.6-0.3c8.4-4.4 21.8-10.1 30.4-13q1.9-0.6 3.8-1.2 0.1 0 0.2 0z"/>
	<path id="Remplissage couleur unie 2" fill-rule="evenodd" class="s2" d="m273.1 116.1c34 0.6 41.8 1.3 60.5 5.7 11.8 2.8 29.4 8.3 39.1 12.2 9.6 3.9 19.7 8.2 27.3 12.1l-5.8 3.6c-3.3 1.9-12.9 8.1-21.5 13.8-8.6 5.7-20.7 14.5-37.9 29l-14.3-3.4c-7.8-1.9-23-4.1-33.8-4.9-10.7-0.9-27.8-0.9-38-0.1-10.2 0.8-26.7 3.3-36.7 5.4-9.9 2.2-19.1 5.1-20.5 6.5-1.4 1.3-4.1 10.7-6 20.9-2 10.3-4 28.3-4.6 40.1-0.7 12.5-0.2 28.4 1.2 38.1 1.3 9.1 4.1 23.2 6.3 31.2 2.1 8.1 6.6 20.8 9.8 28.3 3.3 7.5 10.7 20.7 16.4 29.3 5.7 8.6 15.7 20.9 22.2 27.4 9.3 9.2 11.9 12.9 11.9 17.5 0 3.3 1.2 12.9 2.7 21.5 1.5 8.6 4.5 23.1 6.7 32.2 2.2 9.2 5.8 20.8 8 25.9 2.2 5.1 6 11.2 8.4 13.5 3.1 2.9 0.2 2-9.2-3.1-7.6-4.1-21.1-12.4-30.1-18.4-9-6.1-25.6-19.8-36.9-30.6-11.3-10.7-26.1-26.9-32.9-36.1-6.9-9.1-16.8-24.9-22.1-35.1-5.2-10.2-11.4-23.4-13.6-29.3-2.3-5.9-6-17.8-8.2-26.4-2.2-8.6-5.2-24.8-6.7-36.1-1.5-11.3-2.8-29.5-2.8-40.5 0-11.1 1.3-29.9 2.8-42 1.6-12.1 5.1-30.8 7.9-41.5 2.7-10.8 6.9-23.5 9.4-28.3 3.8-7.5 6.6-9.9 19-16.2 8-4 22.9-9.5 33.1-12.1 10.2-2.7 25.6-6.2 34.2-7.8 11.4-2.1 26.1-2.7 54.7-2.3zm193.3 77.5c1.1-0.1 6.4 4.5 11.9 10.1 5.4 5.7 13.9 15.2 18.8 21.1 4.8 5.9 12.4 16.4 16.8 23.4 4.4 7 11.4 20.2 15.7 29.3 4.3 9.1 10.1 24.5 12.9 34.2 2.8 9.6 6.4 25.4 8 35.1 1.5 9.7 2.8 30.7 2.9 76.2l-8.4 7c-4.5 3.9-14.4 11.2-22 16.2-7.5 5.1-18.9 11.7-25.3 14.8-6.5 3.1-14 6.5-21.5 9.3l3.5-17.8c1.9-9.8 4.2-26.6 5.1-37.3 0.8-10.8 0.7-28.8-0.2-40.1-0.9-11.2-3-25.7-4.7-32.2-1.6-6.4-4.8-16.5-6.9-22.4-2.2-6-6.3-15.2-9-20.6-2.7-5.3-8.6-15-13-21.4-4.3-6.5-14.1-18-21.7-25.6-7.5-7.6-17.2-16.5-29.3-25.8l8.8-5.7c4.8-3.2 15.4-9.3 23.4-13.6 8.1-4.3 18.6-9.2 23.5-10.9 4.8-1.7 9.6-3.2 10.7-3.3z"/>
	<path id="Remplissage couleur unie 3" class="s3" d="m351.2 251.4c-8.6 1.5-20.9 4.2-27.3 5.8-6.5 1.7-18.8 5.6-27.4 8.7-8.6 3.1-18.9 8.5-23 12-5.6 4.8-8.6 9.8-12 20.1-2.6 7.5-6.6 23.3-9 35.1-3.2 15.9-4.6 30.8-5.3 56.7-0.7 25.8-0.1 40.6 2.2 55.6 1.6 11.3 5.3 28.5 8.1 38.1 2.8 9.7 9.2 26.4 14.3 37.1 5.1 10.8 13.1 25.3 17.8 32.2 4.6 7 12.9 18 18.3 24.5 5.4 6.4 13.4 15.3 17.8 19.7 4.4 4.4 14.1 13.2 21.6 19.5 7.5 6.4 19.8 15.7 27.3 20.7 7.5 5 21.6 13 31.3 17.8 9.6 4.8 24.1 11 32.2 13.8 8.1 2.8 23 6.9 33.2 9.1 12.2 2.7 29.3 4.5 49.8 5.2 20 0.7 38.3 0.3 50.8-1.3 10.7-1.3 29.6-5 42-8.2 12.3-3.1 27.9-8.3 34.6-11.5 8.1-3.8 13.6-7.9 16.2-12.1 2.1-3.5 5.7-12.1 7.9-19 2.1-7 6.1-23.7 8.9-37.1 3-15.1 5.3-34.6 6-50.8 0.7-15.6 0.2-34.8-1.2-46.9-1.3-11.3-4.2-28.4-6.4-38.1-2.3-9.6-6.2-23-8.7-29.7-2.5-6.8-7.8-18.6-11.7-26.4-3.9-7.8-11.2-20.3-16.3-27.8-5-7.6-17.4-22.4-27.6-33-10.1-10.6-26.2-25.2-35.9-32.6-9.7-7.3-24.2-17.2-32.2-22.1-8.1-4.8-14.8-8.6-15-8.4-0.2 0.2 3 10.5 7.1 22.8 4.2 12.4 9 30.8 10.7 41 1.7 10.2 3.1 22.1 3.1 26.4 0.1 7 1.5 9.3 13.7 22 7.4 7.8 16.5 18.7 20.1 24.4 3.6 5.6 9.3 15.5 12.5 22 3.2 6.4 7.8 17.8 10.1 25.3 2.3 7.6 5.6 21.6 7.3 31.3 2.3 13.2 2.7 24.1 1.8 43.9-0.6 14.5-2.9 35.2-5.1 45.9-2.1 10.8-4.5 20.1-5.3 20.8-0.8 0.6-7.6 2.6-15.1 4.3-7.6 1.8-19.9 4.1-27.4 5.3-7.5 1.1-22 2-32.2 2-10.2 0-25.2-0.9-33.2-2.1-8.1-1.1-22.1-4.3-31.3-7.1-9.1-2.7-23.1-8.2-31.2-12.2-8.1-4.1-20.5-11.2-27.6-16-7.2-4.8-19.5-14.4-27.4-21.5-7.9-7-19.9-20.2-26.8-29.3-6.8-9-15.4-22.4-19-29.6-3.6-7.3-8.3-17.8-10.4-23.5-2.1-5.6-5.1-15.5-6.6-21.9-1.6-6.5-3.5-16.6-4.2-22.5-0.7-5.9-1.2-21.3-1.2-34.2 0.1-14.8 1.6-31.2 4.1-44.9l4-21.5c15.8-5.1 28.3-8 38-9.7 9.6-1.7 28.1-3.1 41-3.1 12.9 0 30.4 1.3 39 3 8.6 1.6 19.4 4.2 24 5.9 6.3 2.3 8.2 2.4 8.2 0.5 0-1.3-2.5-8.1-5.5-15.1-3-7-9.5-18.9-14.5-26.4-5-7.5-13.7-18.7-19.4-24.8l-10.3-11.2c-43.9 0.2-63.7 1.5-72.3 3.1z"/>
	<path id="Remplissage couleur unie 1" fill-rule="evenodd" class="s4" d="m539.6 116.2c34.4 0.6 43 1.4 60.6 5.6 11.3 2.7 27.5 7.4 36.1 10.4 8.6 3.1 18.2 7.4 21.4 9.5 3.2 2.2 7.6 6.6 9.8 9.8 2.3 3.2 6.2 13.4 8.7 22.5 2.5 9.1 6.3 26.3 8.3 38.1 2.7 15 3.8 30.8 3.9 52.7 0 19.2-1.2 38.4-3 49.8-1.7 10.2-5.3 26.5-8.1 36.1-2.8 9.7-8.3 24.4-19.5 47.9l-4-7.3c-2.2-4.1-7.6-12.7-12-19.1-4.4-6.4-13.2-17.4-31.3-37.1l3.5-12.7c1.9-7 4.3-22.4 5.3-34.2 1-11.8 1.2-30.2 0.3-41-0.8-10.7-2.9-26.5-4.6-35.1-1.7-8.6-3.1-15.9-3.1-16.1 0-0.3-6.4-2.4-14.2-4.6-7.7-2.3-23.6-5.3-35.1-6.9-15.8-2-26.4-2.3-43-0.9-12.1 1-26.3 2.8-31.7 4-5.4 1.2-16.8 4.4-25.4 7.3-8.6 2.8-22.2 8.6-30.3 12.9-8 4.3-18.6 10.5-23.4 13.8-4.8 3.3-14.1 10.5-20.5 16-9.9 8.5-13.4 10.2-22.5 11.5-5.9 0.7-19 3.2-29.3 5.3-10.2 2.2-26 6.6-35.1 9.8-9.1 3.2-19.5 7.5-23 9.6-3.4 2-6.3 3.2-6.3 2.7 0-0.5 2.3-5.6 5.2-11.2 2.8-5.7 9.5-16.9 14.9-24.9 5.5-8.1 19.2-24 30.5-35.3 11.4-11.4 27.3-25.5 35.3-31.5 8.1-5.9 20.4-14.3 27.4-18.5 7-4.3 20.8-11.5 30.7-15.9 10-4.5 25.8-10.4 35.2-13.1 9.4-2.6 24.1-6.1 32.7-7.7 11.5-2.1 26.2-2.7 55.6-2.2zm36.2 283.3l6.3 7.9c3.5 4.3 10.8 16.6 16.2 27.3 5.5 10.7 10.1 22.1 10.3 25.2 0.3 4.9-1.8 7.6-15.2 19-8.6 7.4-22.7 18.1-31.3 24-8.6 5.8-24.4 14.9-35.1 20.2-10.8 5.4-27 12-36.2 14.9-9.1 2.8-23.2 6.5-31.2 8.1-8.1 1.7-29.8 3.6-81.8 5.8l-5.2-4.9c-2.8-2.7-10.5-11.9-17-20.5-6.5-8.6-15.7-23.5-20.4-33.2-4.6-9.7-8.4-18.5-8.4-19.5 0.1-1.2 4.9-0.7 12.2 1.2 6.7 1.7 21 4.3 31.7 5.6 12.3 1.6 28.6 2.1 44 1.3 13.4-0.6 31-2.8 39-4.9 8.1-2 21.7-6.5 30.3-10 8.6-3.4 20.9-9.4 27.3-13.3 6.5-3.9 16.6-10.6 22.5-14.8 5.9-4.3 17.8-14.9 26.4-23.6z"/>
</svg>