<svg version="1.2" xmlns="http://www.w3.org/2000/svg" viewBox="0 0 48 48" width="48" height="48">
	<title>marker</title>
	<defs>
		<filter x="-50%" y="-50%" width="200%" height="200%" id="f1" ><feDropShadow dx="-2.4492935982947064e-16" dy="4" stdDeviation="3.3333333333333335" flood-color="#000000" flood-opacity=".4"/></filter>
		<linearGradient id="g1" x2="1" gradientUnits="userSpaceOnUse" gradientTransform="matrix(0,42.701,-32.102,0,24.066,.972)">
			<stop offset="0" stop-color="#22d3ee"/>
			<stop offset=".01" stop-color="#22d3ee"/>
			<stop offset=".97" stop-color="#06b6d4"/>
			<stop offset="1" stop-color="#0e7490"/>
		</linearGradient>
		<filter x="-50%" y="-50%" width="200%" height="200%" id="f2" ><feDropShadow dx="-6.123233995736766e-17" dy="1" stdDeviation="0.4166666666666667" flood-color="#000000" flood-opacity=".2"/></filter>
		<linearGradient id="g2" x2="1" gradientUnits="userSpaceOnUse" gradientTransform="matrix(0,42.701,-32.102,0,24.066,.972)">
			<stop offset="0" stop-color="#22d3ee"/>
			<stop offset=".01" stop-color="#22d3ee"/>
			<stop offset=".97" stop-color="#06b6d4"/>
			<stop offset="1" stop-color="#0e7490"/>
		</linearGradient>
	</defs>
	<style>
		.s0 { filter: url(#f1);fill: url(#g1) } 
		.s1 { fill: #cffafe } 
		.s2 { filter: url(#f2);fill: url(#g2) } 
	</style>
	<g id="icons">
		<g id="Layer_3">
			<path id="Layer copy 2" fill-rule="evenodd" class="s0" d="m40.1 16.5q0 1.3-0.2 2.5-0.2 1.2-0.6 2.4-0.4 1.2-1 2.3-0.6 1.1-1.4 2.1l-12.8 17.9-12.9-17.9q-1.3-1.7-2.1-3.8-0.8-2.1-1-4.3-0.2-2.2 0.2-4.3 0.4-2.2 1.4-4.2 0.5-1 1.2-2 0.7-1 1.6-1.8 0.8-0.8 1.8-1.5 1-0.7 2.1-1.2c12-5.4 23.7 2.9 23.7 13.8zm-13.6 4.8q1.1-0.5 1.9-1.2 0.8-0.8 1.3-1.9 0.4-1 0.4-2.1c0-2.3-1.4-4.4-3.6-5.2-2.2-0.9-4.7-0.4-6.4 1.2-1.6 1.6-2.1 4-1.2 6.1 0.9 2.1 3 3.5 5.4 3.5q1.2 0 2.2-0.4z"/>
			<path id="Forme 1" fill-rule="evenodd" class="s1" d="m24 24.3c-4.4 0-8-3.5-8-7.9 0-4.3 3.6-7.8 8-7.8 4.4 0 8 3.5 8 7.8 0 4.4-3.6 7.9-8 7.9z"/>
			<path id="Layer copy" fill-rule="evenodd" class="s2" d="m40.1 16.5q0 1.3-0.2 2.5-0.2 1.2-0.6 2.4-0.4 1.2-1 2.3-0.6 1.1-1.4 2.1l-12.8 17.9-12.9-17.9q-1.3-1.7-2.1-3.8-0.8-2.1-1-4.3-0.2-2.2 0.2-4.3 0.4-2.2 1.4-4.2 0.5-1 1.2-2 0.7-1 1.6-1.8 0.8-0.8 1.8-1.5 1-0.7 2.1-1.2c12-5.4 23.7 2.9 23.7 13.8zm-13.6 4.8q1.1-0.5 1.9-1.2 0.8-0.8 1.3-1.9 0.4-1 0.4-2.1c0-2.3-1.4-4.4-3.6-5.2-2.2-0.9-4.7-0.4-6.4 1.2-1.6 1.6-2.1 4-1.2 6.1 0.9 2.1 3 3.5 5.4 3.5q1.2 0 2.2-0.4z"/>
		</g>
	</g>
</svg>