<svg version="1.2" xmlns="http://www.w3.org/2000/svg" viewBox="0 0 60 60" width="60" height="60">
	<title>marker</title>
	<style>
		.s0 { fill: #c3ebf2;stroke: #0097a7;stroke-miterlimit:100 } 
	</style>
	<g id="icons">
		<g id="Layer_3">
			<path id="Layer copy 3" fill-rule="evenodd" class="s0" d="m50.1 23.1q0 1.6-0.2 3.2-0.3 1.5-0.8 3-0.5 1.5-1.3 2.9-0.7 1.3-1.7 2.6l-16 18.5-16.1-18.5q-1.7-2.2-2.7-4.8-1-2.6-1.2-5.3-0.3-2.8 0.3-5.5 0.5-2.7 1.8-5.1 0.6-1.4 1.5-2.6 0.8-1.2 1.9-2.3 1.1-1 2.3-1.9 1.3-0.8 2.6-1.4c15-6.8 29.6 3.5 29.6 17.2zm-16.9 6q1.3-0.5 2.3-1.5 1-1 1.6-2.3 0.5-1.3 0.5-2.7c0-2.9-1.7-5.4-4.5-6.5-2.7-1.1-5.8-0.5-7.9 1.5-2.1 2-2.7 5.1-1.6 7.7 1.1 2.6 3.8 4.3 6.8 4.3q1.4 0 2.8-0.5z"/>
		</g>
	</g>
</svg>