<svg version="1.2" xmlns="http://www.w3.org/2000/svg" viewBox="0 0 48 48" width="48" height="48"><defs><linearGradient id="P" gradientUnits="userSpaceOnUse"/><linearGradient id="g1" x2="1" href="#P" gradientTransform="matrix(0,42.701,-32.102,0,24.066,.972)"><stop stop-color="#fb923c"/><stop offset=".01" stop-color="#fb923c"/><stop offset=".97" stop-color="#f97316"/><stop offset="1" stop-color="#b45309"/></linearGradient></defs><style>.a{fill:#ffeedf}.b{fill:url(#g1)}</style><path fill-rule="evenodd" class="a" d="m24 24.3c-4.4 0-8-3.5-8-7.9 0-4.3 3.6-7.8 8-7.8 4.4 0 8 3.5 8 7.8 0 4.4-3.6 7.9-8 7.9z"/><path fill-rule="evenodd" class="b" d="m40.1 16.5q0 1.3-0.2 2.5-0.2 1.2-0.6 2.4-0.4 1.2-1 2.3-0.6 1.1-1.4 2.1l-12.8 17.9-12.9-17.9q-1.3-1.7-2.1-3.8-0.8-2.1-1-4.3-0.2-2.2 0.2-4.3 0.4-2.2 1.4-4.2 0.5-1 1.2-2 0.7-1 1.6-1.8 0.8-0.8 1.8-1.5 1-0.7 2.1-1.2c12-5.4 23.7 2.9 23.7 13.8zm-13.6 4.8q1.1-0.5 1.9-1.2 0.8-0.8 1.3-1.9 0.4-1 0.4-2.1c0-2.3-1.4-4.4-3.6-5.2-2.2-0.9-4.7-0.4-6.4 1.2-1.6 1.6-2.1 4-1.2 6.1 0.9 2.1 3 3.5 5.4 3.5q1.2 0 2.2-0.4z"/></svg>