<svg version="1.2" xmlns="http://www.w3.org/2000/svg" viewBox="0 0 48 48" width="48" height="48">
	<title>marker_green</title>
	<style>
		.s0 { opacity: .5;display: none;fill: #0097a7 } 
		.s1 { opacity: .5;display: none;fill: #c3ebf2 } 
		.s2 { opacity: .7;display: none;fill: #faddbc } 
		.s3 { display: none;fill: #8bdae6;stroke: #0097a7;stroke-miterlimit:100;stroke-width: .2 } 
		.s4 { fill: #ffffff;stroke: #aaaaaa;stroke-linecap: round;stroke-linejoin: round;stroke-width: .4 } 
		.s5 { display: none;fill: #f47d02;stroke: #fadcbc;stroke-miterlimit:100;stroke-width: 0 } 
		.s6 { display: none;fill: none } 
		.s7 { fill: #0097a7 } 
		.s8 { display: none;fill: #0097a7 } 
		.s9 { fill: #b2ebf2 } 
	</style>
	<path fill-rule="evenodd" class="s0" d="m23.7 29.5c-6.1 0-11.1-4.9-11.1-10.9 0-6.1 5-11 11.1-11 6.2 0 11.2 4.9 11.2 11 0 6-5 10.9-11.2 10.9z"/>
	<path id="Layer copy 2" fill-rule="evenodd" class="s1" d="m24.8 29.5c-6.2 0-11.2-4.9-11.2-10.9 0-6.1 5-11 11.1-11 6.2 0 11.2 4.9 11.2 11 0 6-5 10.9-11.2 10.9z"/>
	<path id="Layer copy 4" fill-rule="evenodd" class="s2" d="m23.7 29.5c-6.1 0-11.1-4.9-11.1-10.9 0-6.1 5-11 11.1-11 6.2 0 11.2 4.9 11.2 11 0 6-5 10.9-11.2 10.9z"/>
	<path fill-rule="evenodd" class="s3" d="m41.4 18.1q0 1.4-0.2 2.8-0.2 1.3-0.7 2.6-0.4 1.4-1.1 2.6-0.6 1.2-1.5 2.3l-14.2 15.3-14.1-15.3q-1.5-1.9-2.4-4.2-0.9-2.3-1.1-4.7-0.2-2.4 0.2-4.8 0.5-2.4 1.6-4.6 0.6-1.2 1.3-2.3 0.8-1 1.7-1.9 1-1 2.1-1.7 1.1-0.8 2.3-1.3c13.2-6 26.1 3.1 26.1 15.2zm-15 5.3q1.2-0.5 2.1-1.4 0.9-0.9 1.4-2 0.5-1.1 0.5-2.4c0-2.5-1.6-4.8-4-5.7-2.4-1-5.2-0.5-7 1.3-1.8 1.8-2.4 4.5-1.4 6.8 1 2.3 3.4 3.9 6 3.9q1.3-0.1 2.4-0.5z"/>
	<path id="Layer copy" fill-rule="evenodd" class="s4" d="m43.1 19.4q0 1.5-0.2 3-0.2 1.4-0.7 2.8-0.4 1.6-1.2 2.8-0.6 1.3-1.6 2.5l-14.9 14.4-14.8-14.4q-1.5-2-2.5-4.5-0.9-2.5-1.1-5.1-0.2-2.6 0.2-5.1 0.5-2.6 1.7-5 0.6-1.3 1.3-2.5 0.9-1.1 1.8-2 1.1-1.1 2.2-1.9 1.2-0.8 2.4-1.4c13.9-6.4 27.4 3.4 27.4 16.4zm-15.7 5.7q1.2-0.5 2.2-1.5 0.9-0.9 1.4-2.1 0.6-1.2 0.6-2.6c0-2.7-1.7-5.2-4.2-6.2-2.5-1-5.5-0.5-7.4 1.4-1.9 2-2.5 4.9-1.4 7.4 1 2.4 3.5 4.2 6.3 4.2q1.3-0.1 2.5-0.6z"/>
	<path id="Layer copy 3" fill-rule="evenodd" class="s5" d="m41.4 18.1q0 1.4-0.2 2.8-0.2 1.3-0.7 2.6-0.4 1.4-1.1 2.6-0.6 1.2-1.5 2.3l-14.2 15.3-14.1-15.3q-1.5-1.9-2.4-4.2-0.9-2.3-1.1-4.7-0.2-2.4 0.2-4.8 0.5-2.4 1.6-4.6 0.6-1.2 1.3-2.3 0.8-1 1.7-1.9 1-1 2.1-1.7 1.1-0.8 2.3-1.3c13.2-6 26.1 3.1 26.1 15.2zm-15 5.3q1.2-0.5 2.1-1.4 0.9-0.9 1.4-2 0.5-1.1 0.5-2.4c0-2.5-1.6-4.8-4-5.7-2.4-1-5.2-0.5-7 1.3-1.8 1.8-2.4 4.5-1.4 6.8 1 2.3 3.4 3.9 6 3.9q1.3-0.1 2.4-0.5z"/>
	<path id="Layer copy 5" fill-rule="evenodd" class="s6" d="m41.4 18.1q0 1.4-0.2 2.8-0.2 1.3-0.7 2.6-0.4 1.4-1.1 2.6-0.6 1.2-1.5 2.3l-14.2 15.3-14.1-15.3q-1.5-1.9-2.4-4.2-0.9-2.3-1.1-4.7-0.2-2.4 0.2-4.8 0.5-2.4 1.6-4.6 0.6-1.2 1.3-2.3 0.8-1 1.7-1.9 1-1 2.1-1.7 1.1-0.8 2.3-1.3c13.2-6 26.1 3.1 26.1 15.2zm-15 5.3q1.2-0.5 2.1-1.4 0.9-0.9 1.4-2 0.5-1.1 0.5-2.4c0-2.5-1.6-4.8-4-5.7-2.4-1-5.2-0.5-7 1.3-1.8 1.8-2.4 4.5-1.4 6.8 1 2.3 3.4 3.9 6 3.9q1.3-0.1 2.4-0.5z"/>
	<path id="Forme 1" fill-rule="evenodd" class="s7" d="m24.6 32.8c-7.3 0-13.2-5.9-13.2-13.2 0-7.3 5.9-13.2 13.2-13.2 7.3 0 13.2 5.9 13.2 13.2 0 7.3-5.9 13.2-13.2 13.2z"/>
	<path id="Forme 2" fill-rule="evenodd" class="s8" d="m22 11c0.6 0 1 0.4 1 0.9v0.9h4v-0.9c0-0.5 0.4-0.9 1-0.9 0.6 0 1 0.4 1 0.9v0.9h1.5c0.8 0 1.5 0.5 1.5 1.3v1.3h-14v-1.3c0-0.8 0.7-1.3 1.5-1.3h1.5v-0.9c0-0.5 0.4-0.9 1-0.9zm-4 5.3h14v7.4c0 0.7-0.7 1.3-1.5 1.3h-11c-0.8 0-1.5-0.6-1.5-1.3zm2.5 1.7c-0.3 0-0.5 0.2-0.5 0.5v2.6c0 0.2 0.2 0.4 0.5 0.4h3c0.3 0 0.5-0.2 0.5-0.4v-2.6c0-0.3-0.2-0.5-0.5-0.5z"/>
	<path id="Forme 3" fill-rule="evenodd" class="s9" d="m30.9 18.8l2-1.9c0.6-0.7 0.6-1.6 0-2.3l-2.2-2.1c-0.6-0.7-1.6-0.7-2.2 0l-1.1 1.1q-0.1 0-0.3 0h-3.1c-1 0-1.9 0.8-2 1.8v3.3c0 0.6 0.5 1.1 1.1 1.1 0.6 0 1.1-0.5 1.1-1.1v-2.4c0 0 4.3 0 4.3 0h0.2c1.2 0 2.2 1 2.2 2.2zm-5.8-1.7v1.6c0 1.1-0.9 2-2 2-1.1 0-2-0.9-2-2v-3.3c-1 0.2-1.8 0.9-2.1 1.9l-0.5 1.6-2 2.1c-0.7 0.6-0.7 1.6 0 2.2l2.1 2.2c0.7 0.6 1.6 0.6 2.3 0l1-1.1q0.1 0 0.1 0h4.5c0.7 0 1.3-0.6 1.3-1.3q0-0.3-0.1-0.5h0.1c0.8 0 1.4-0.6 1.4-1.3 0-0.4-0.2-0.7-0.4-1 0.7-0.1 1.2-0.7 1.2-1.5 0-0.9-0.7-1.6-1.5-1.6 0 0-3.4 0-3.4 0z"/>
</svg>