<svg version="1.2" xmlns="http://www.w3.org/2000/svg" viewBox="0 0 60 60" width="60" height="60">
	<title>marker</title>
	<defs>
		<filter x="-50%" y="-50%" width="200%" height="200%" id="f1" ><feDropShadow dx="-3.6739403974420594e-16" dy="6" stdDeviation="4.583333333333334" flood-color="#000000" flood-opacity=".4"/></filter>
		<linearGradient id="g1" x2="1" gradientUnits="userSpaceOnUse" gradientTransform="matrix(0,49.623,-40.127,0,30.083,3.718)">
			<stop offset="0" stop-color="#22d3ee"/>
			<stop offset=".01" stop-color="#22d3ee"/>
			<stop offset=".97" stop-color="#06b6d4"/>
			<stop offset="1" stop-color="#0e7490"/>
		</linearGradient>
		<linearGradient id="g2" x2="1" gradientUnits="userSpaceOnUse" gradientTransform="matrix(0,53.376,-40.127,0,30.083,1.216)">
			<stop offset="0" stop-color="#22d3ee"/>
			<stop offset=".01" stop-color="#22d3ee"/>
			<stop offset=".97" stop-color="#06b6d4"/>
			<stop offset="1" stop-color="#0e7490"/>
		</linearGradient>
	</defs>
	<style>
		.s0 { display: none;filter: url(#f1);fill: #06b6d4 } 
		.s1 { display: none;fill: url(#g1) } 
		.s2 { display: none;fill: #c3ebf2;stroke: #0097a7;paint-order:stroke fill markers;stroke-miterlimit:100;stroke-width: 2 } 
		.s3 { fill: #c3ebf2;stroke: #0097a7;stroke-miterlimit:100 } 
		.s4 { display: none;fill: #0097a7 } 
		.s5 { display: none;fill: #cffafe } 
		.s6 { display: none;fill: url(#g2) } 
	</style>
	<g id="icons">
		<g id="Layer_3">
			<path fill-rule="evenodd" class="s0" d="m50.1 21.4q0 1.5-0.2 3.1-0.3 1.6-0.8 3.1-0.5 1.5-1.3 2.9-0.7 1.4-1.7 2.7l-16 22.6-16.1-22.6q-1.7-2.3-2.7-4.9-1-2.6-1.2-5.4-0.3-2.8 0.3-5.5 0.5-2.8 1.8-5.3 0.6-1.3 1.5-2.6 0.8-1.2 1.9-2.3 1.1-1 2.3-1.9 1.3-0.9 2.6-1.5c15-6.9 29.6 3.6 29.6 17.6zm-16.9 6q1.3-0.6 2.3-1.6 1-1 1.6-2.3 0.5-1.3 0.5-2.7c0-2.9-1.7-5.5-4.5-6.6-2.7-1.1-5.8-0.5-7.9 1.5-2.1 2.1-2.7 5.2-1.6 7.8 1.1 2.7 3.8 4.5 6.8 4.4q1.4 0 2.8-0.5z"/>
			<path id="Layer copy 2" fill-rule="evenodd" class="s1" d="m50.1 23.1q0 1.6-0.2 3.2-0.3 1.5-0.8 3-0.5 1.5-1.3 2.9-0.7 1.3-1.7 2.6l-16 18.5-16.1-18.5q-1.7-2.2-2.7-4.8-1-2.6-1.2-5.3-0.3-2.8 0.3-5.5 0.5-2.7 1.8-5.1 0.6-1.4 1.5-2.6 0.8-1.2 1.9-2.3 1.1-1 2.3-1.9 1.3-0.8 2.6-1.4c15-6.8 29.6 3.5 29.6 17.2zm-16.9 6q1.3-0.5 2.3-1.5 1-1 1.6-2.3 0.5-1.3 0.5-2.7c0-2.9-1.7-5.4-4.5-6.5-2.7-1.1-5.8-0.5-7.9 1.5-2.1 2-2.7 5.1-1.6 7.7 1.1 2.6 3.8 4.3 6.8 4.3q1.4 0 2.8-0.5z"/>
			<path id="Layer copy 4" class="s2" d="m20.5 5.9q-1.3 0.6-2.6 1.4-1.2 0.9-2.3 1.9-1.1 1.1-1.9 2.3-0.9 1.2-1.5 2.6-1.3 2.4-1.8 5.1-0.6 2.7-0.3 5.5 0.2 2.7 1.2 5.3 1 2.6 2.7 4.8l16.1 18.5 16-18.5q1-1.3 1.7-2.6 0.8-1.4 1.3-2.9 0.5-1.5 0.8-3 0.2-1.6 0.2-3.2c0-13.7-14.6-24-29.6-17.2z"/>
			<path id="Layer copy 3" fill-rule="evenodd" class="s3" d="m50.1 23.1q0 1.6-0.2 3.2-0.3 1.5-0.8 3-0.5 1.5-1.3 2.9-0.7 1.3-1.7 2.6l-16 18.5-16.1-18.5q-1.7-2.2-2.7-4.8-1-2.6-1.2-5.3-0.3-2.8 0.3-5.5 0.5-2.7 1.8-5.1 0.6-1.4 1.5-2.6 0.8-1.2 1.9-2.3 1.1-1 2.3-1.9 1.3-0.8 2.6-1.4c15-6.8 29.6 3.5 29.6 17.2zm-16.9 6q1.3-0.5 2.3-1.5 1-1 1.6-2.3 0.5-1.3 0.5-2.7c0-2.9-1.7-5.4-4.5-6.5-2.7-1.1-5.8-0.5-7.9 1.5-2.1 2-2.7 5.1-1.6 7.7 1.1 2.6 3.8 4.3 6.8 4.3q1.4 0 2.8-0.5z"/>
			<path id="Forme 2" fill-rule="evenodd" class="s4" d="m30 31c-4.4 0-8-3.6-8-8 0-4.4 3.6-8 8-8 4.4 0 8 3.6 8 8 0 4.4-3.6 8-8 8z"/>
			<path id="Forme 1" fill-rule="evenodd" class="s5" d="m30 30.4c-5.5 0-10-4.4-10-9.9 0-5.4 4.5-9.8 10-9.8 5.5 0 10 4.4 10 9.8 0 5.5-4.5 9.9-10 9.9z"/>
			<path id="Layer copy" fill-rule="evenodd" class="s6" d="m50.1 20.6q0 1.6-0.2 3.2-0.3 1.5-0.8 3-0.5 1.5-1.3 2.9-0.7 1.3-1.7 2.6l-16 22.3-16.1-22.3q-1.7-2.2-2.7-4.8-1-2.6-1.2-5.3-0.3-2.8 0.3-5.5 0.5-2.7 1.8-5.1 0.6-1.4 1.5-2.6 0.8-1.2 1.9-2.3 1.1-1 2.3-1.9 1.3-0.8 2.6-1.4c15-6.8 29.6 3.5 29.6 17.2zm-16.9 6q1.3-0.5 2.3-1.5 1-1 1.6-2.3 0.5-1.3 0.5-2.7c0-2.9-1.7-5.4-4.5-6.5-2.7-1.1-5.8-0.5-7.9 1.5-2.1 2-2.7 5.1-1.6 7.7 1.1 2.6 3.8 4.3 6.8 4.3q1.4 0 2.8-0.5z"/>
		</g>
	</g>
</svg>