<svg version="1.2" xmlns="http://www.w3.org/2000/svg" viewBox="0 0 48 48" width="48" height="48">
	<title>marker_green</title>
	<defs>
		<filter x="-50%" y="-50%" width="200%" height="200%" id="f1" ><feDropShadow dx="0" dy="0" stdDeviation="0.4166666666666667" flood-color="#000000" flood-opacity=".5"/></filter>
	</defs>
	<style>
		.s0 { opacity: .72;fill: #ffffff } 
		.s1 { filter: url(#f1);fill: #00d3f2 } 
	</style>
	<path fill-rule="evenodd" class="s0" d="m23.7 29.5c-6.1 0-11.1-4.9-11.1-10.9 0-6.1 5-11 11.1-11 6.2 0 11.2 4.9 11.2 11 0 6-5 10.9-11.2 10.9z"/>
	<path fill-rule="evenodd" class="s1" d="m41.4 18.1q0 1.4-0.2 2.8-0.2 1.3-0.7 2.6-0.4 1.4-1.1 2.6-0.6 1.2-1.5 2.3l-14.2 15.3-14.1-15.3q-1.5-1.9-2.4-4.2-0.9-2.3-1.1-4.7-0.2-2.4 0.2-4.8 0.5-2.4 1.6-4.6 0.6-1.2 1.3-2.3 0.8-1 1.7-1.9 1-1 2.1-1.7 1.1-0.8 2.3-1.3c13.2-6 26.1 3.1 26.1 15.2zm-15 5.3q1.2-0.5 2.1-1.4 0.9-0.9 1.4-2 0.5-1.1 0.5-2.4c0-2.5-1.6-4.8-4-5.7-2.4-1-5.2-0.5-7 1.3-1.8 1.8-2.4 4.5-1.4 6.8 1 2.3 3.4 3.9 6 3.9q1.3-0.1 2.4-0.5z"/>
</svg>