<svg version="1.2" xmlns="http://www.w3.org/2000/svg" viewBox="0 0 960 960" width="200" height="200">
	<title>user</title>
	<style>
		.s0 { fill: #a5f3fc } 
		.s1 { fill: #0891b2 } 
	</style>
	<path id="Forme 1" fill-rule="evenodd" class="s0" d="m480 960c-265.4 0-480-214.6-480-480 0-265.4 214.6-480 480-480 265.4 0 480 214.6 480 480 0 265.4-214.6 480-480 480z"/>
	<path class="s1" d="m479.1 858q-78.7 0-147.9-29.8-69.2-29.8-120.3-81.4-51.2-51.6-80.6-120.5-29.3-68.9-29.3-147.3 0-78.3 29.8-147.3 29.8-68.9 81.4-120 51.6-51.1 120.5-80.9 68.9-29.8 147.3-29.8 78.3 0 147.3 29.8 68.9 29.8 120 80.9 51.1 51.1 80.9 120.2 29.8 69.1 29.8 147.3 0 78.3-29.8 147.2-29.8 68.8-80.9 120.4-51.1 51.6-120.3 81.4-69.2 29.8-147.9 29.8zm-243.7-165.6q59.6-37.8 117.8-57.2 58.2-19.4 126.3-19.4 68.1 0 126.8 19.4 58.7 19.4 118.3 57.2 41.6-51.1 59.1-103.1 17.5-52.1 17.5-109.8 0-137.2-92.2-229.5-92.3-92.2-229.5-92.2-137.2 0-229.5 92.2-92.2 92.3-92.2 229.5 0 57.7 18 109.8 17.9 52 59.6 103.1zm243.9-184.5q-54.7 0-92.1-37.6-37.3-37.5-37.3-92.2 0-54.7 37.5-92.1 37.6-37.4 92.3-37.4 54.7 0 92.1 37.6 37.3 37.5 37.3 92.2 0 54.7-37.5 92.1-37.6 37.4-92.3 37.4z"/>
</svg>