<svg version="1.2" xmlns="http://www.w3.org/2000/svg" viewBox="0 0 48 48" width="48" height="48">
	<title>marker</title>
	<defs>
		<filter x="-50%" y="-50%" width="200%" height="200%" id="f1" ><feDropShadow dx="-2.4492935982947064e-16" dy="4" stdDeviation="3.3333333333333335" flood-color="#000000" flood-opacity=".4"/></filter>
		<linearGradient id="g1" x2="1" gradientUnits="userSpaceOnUse" gradientTransform="matrix(0,43.382,-32.102,0,24.066,.291)">
			<stop offset="0" stop-color="#67e8f9"/>
			<stop offset=".01" stop-color="#67e8f9"/>
			<stop offset=".3" stop-color="#22d3ee"/>
			<stop offset=".703" stop-color="#07a7c6"/>
			<stop offset=".968" stop-color="#0891b2"/>
			<stop offset="1" stop-color="#0e7490"/>
		</linearGradient>
	</defs>
	<style>
		.s0 { fill: #ffffff } 
		.s1 { filter: url(#f1);fill: url(#g1) } 
	</style>
	<g id="icons">
		<g id="Layer_3">
			<path id="Forme 1" class="s0" d="m24 24c-4.4 0-8-3.6-8-8 0-4.4 3.6-8 8-8 4.4 0 8 3.6 8 8 0 4.4-3.6 8-8 8z"/>
			<path id="Layer copy" fill-rule="evenodd" class="s1" d="m40.1 16.1q0 1.3-0.2 2.5-0.2 1.3-0.6 2.5-0.4 1.2-1 2.3-0.6 1.1-1.4 2.2l-12.8 18.1-12.9-18.1q-1.3-1.8-2.1-3.9-0.8-2.1-1-4.4-0.2-2.2 0.2-4.4 0.4-2.2 1.4-4.2 0.5-1.1 1.2-2.1 0.7-1 1.6-1.8 0.8-0.9 1.8-1.6 1-0.6 2.1-1.2c12-5.4 23.7 2.9 23.7 14.1zm-13.6 4.8q1.1-0.4 1.9-1.2 0.8-0.8 1.3-1.9 0.4-1 0.4-2.2c0-2.3-1.4-4.4-3.6-5.3-2.2-0.9-4.7-0.4-6.4 1.3-1.6 1.6-2.1 4.1-1.2 6.2 0.9 2.2 3 3.6 5.4 3.6q1.2 0 2.2-0.5z"/>
		</g>
	</g>
</svg>